<svg id="Layer_1" data-name="Layer 1" xmlns="http://www.w3.org/2000/svg" viewBox="0 0 227.06 228.46"><defs><style>.cls-1{fill:#eb827c;}.cls-2{fill:#e6c5a1;}.cls-3{fill:#f5d7b3;}.cls-4,.cls-6{fill:#c89f81;}.cls-4{opacity:0.7;}.cls-5{fill:#d8ad8b;}.cls-7{fill:#e4bea0;}.cls-8{fill:#ca666c;}.cls-9{fill:#d96f71;}.cls-10{fill:#321a15;}.cls-11{fill:#9d5256;}.cls-12{fill:#f9f4de;}</style></defs><title>1-81</title><rect class="cls-1" width="227.06" height="228.46"/><path class="cls-2" d="M114.23,143.29v85.2H68L66.88,228c0-19.07,4.92-30.79,10.7-38,8-10,17.6-11.14,17.6-11.14H95.4a2.88,2.88,0,0,0,.62-0.14c2.33-.65,3.92-4.09,5-9,0.19-.85.36-1.72,0.49-2.66,0.25-1.57.49-3.21,0.65-4.94,0.1-1,.19-2.09.29-3.15,0.42-5.23.55-10.91,0.55-16.31C103,142.67,109.22,143.29,114.23,143.29Z"/><path class="cls-3" d="M161.74,228s-0.42.16-1.11,0.49H114.23v-85.2h0.1c5,0,11.28-.62,11.28-0.62,0,5.36.13,11,.55,16.17,0.1,1.05.2,2.08,0.3,3.09,0.19,1.79.39,3.48,0.65,5.07v0c0.09,0.72.22,1.36,0.36,2,1,4.76,2.4,8.27,4.47,9.44a2.44,2.44,0,0,0,.49.19,2.63,2.63,0,0,0,1,.2s10.11,1.2,18.24,11.95C157.18,198.08,161.74,209.61,161.74,228Z"/><path class="cls-4" d="M127.1,167v0a14.91,14.91,0,0,1-12.8,7h-0.06c-7.36,0-11.64-5.4-12.73-7,0.26-1.55.49-3.21,0.64-4.93,0.1-1,.19-2.08.29-3.15a51,51,0,0,0,11.67,1.52h0.13a47.74,47.74,0,0,0,11.93-1.66c0.1,1,.19,2.09.29,3.08C126.65,163.74,126.84,165.43,127.1,167Z"/><path class="cls-5" d="M114.2,51.76C66,51.67,65.68,90.51,67.83,115.84c-3.31-5.94-13.09-3.74-12.3,5.79,0.77,9.11,14.6,13.24,14.41,12.24C73.89,154.5,96.62,166,114.2,167.59h0.37V51.76H114.2Z"/><path class="cls-6" d="M58,117.6A4.76,4.76,0,0,1,65,116.32a3.7,3.7,0,0,1,1.14,4.22c-0.34,1.22-1.69,1.32-1.36,3.18a3.3,3.3,0,0,0,2,2.7,4.43,4.43,0,0,1,1.64,1.72,4.35,4.35,0,0,1,.22,2.63c-0.37,1.51-2.67.31-4.22-.37a30,30,0,0,1-5.07-3.92C57.29,124.29,56.34,120,58,117.6Z"/><path class="cls-7" d="M114.44,51.76c48.23-.09,48.51,38.75,46.36,64.08,3.32-5.94,13.1-3.74,12.3,5.79-0.78,9.11-14.6,13.24-14.4,12.24C154.75,154.5,132,166,114.44,167.59h-0.37V51.76h0.37Z"/><path class="cls-6" d="M171,117.6a4.76,4.76,0,0,0-7.07-1.28,3.72,3.72,0,0,0-1.14,4.22c0.34,1.22,1.7,1.32,1.37,3.18a3.31,3.31,0,0,1-2,2.7,4.39,4.39,0,0,0-1.65,1.72,4.49,4.49,0,0,0-.22,2.63c0.37,1.51,2.68.31,4.22-.37a29.33,29.33,0,0,0,5.07-3.92C171.68,124.29,172.63,120,171,117.6Z"/><path class="cls-2" d="M113.94,62.75c-16.11,0-27.9,4.45-35,13.24-10,12.27-9.58,31-5.91,44.47,1.12,4.11,1.7,15.19,2.47,19.27,3.48,18.19,24.58,27.89,38.47,27.89h0.37V62.76h-0.37Z"/><path class="cls-3" d="M148.9,76c-7.08-8.72-18.74-13.17-34.59-13.25V167.6c15.86-.17,34.82-10.78,38.09-27.87,0.77-4.08,1.35-15.15,2.47-19.27C158.54,107,158.92,88.32,148.9,76Z"/><path class="cls-8" d="M122.43,151.16s-3.64,3.91-8.13,3.91-7.92-3.82-7.92-3.82a51.59,51.59,0,0,1,7.92-.59A66.1,66.1,0,0,1,122.43,151.16Z"/><path class="cls-9" d="M116.61,149.37a2.11,2.11,0,0,0-2.31,1.77,2.12,2.12,0,0,0-2.3-1.77c-1.28,0-5.83,1.79-5.83,1.79s4.44,0.47,5.71.47,2.38,0.5,2.41-.44c0,1,.93.59,2.19,0.59s5.93-.62,5.93-0.62S117.88,149.37,116.61,149.37Z"/><path class="cls-10" d="M161.74,228s-0.42.16-1.11,0.49H68L66.88,228c0-19.07,4.92-30.79,10.7-38a25.21,25.21,0,0,0,18,13.12,162.49,162.49,0,0,0,18.63,2.37c9.66,0.72,18.77-.86,23.77-3.6a51.73,51.73,0,0,0,13.7-11.08C157.18,198.08,161.74,209.61,161.74,228Z"/><path class="cls-11" d="M158,130.32c0.93,0-.06-5.43,3-9.17s7.79-16.34,7.79-28.92-4-23.77-14.52-35.67-25.94-17.68-25.94-17.68L135.45,46s-3.83-5.8-17.57-10.43C107,31.95,100,36,100,36s7.15-.27,9.31,3.15a12,12,0,0,0,2.56,2.19s-3.32-8.21-18.77-1.4S78,58.94,67.21,62.68C56.22,66.52,53,61.6,53,61.6s4.78,8.62,13.25,8.64a5.84,5.84,0,0,0,1.51,0S64.62,79.44,64,86.33s1.32,11.85,1.91,25c0.52,11.25,3.31,5.48,6.63,13.77A19,19,0,0,1,73.72,131c1.23,0.33,4.46-6.76,2.14-19.05-1.51-8,5.95-38.25,23.95-32.34,11,3.61,13.79,11,22,4.43,7.1-5.63,17-8.86,24.43-4.41s11.58,14.46,10.3,30.44C154.9,130.47,158,130.32,158,130.32Z"/><path class="cls-12" d="M132.64,179.85a8.84,8.84,0,0,1-2-6.5c0.37-2.31-3.39-2.21-3.39-2.21s1.36,1.84.09,3.11-6,2.93-13.19,2.93-10.13-.9-11.74-1.81-3.11-2.92-.91-4.86a6.22,6.22,0,0,0-3.89,1.26c-2,1.46,1.29,2.53.09,4.42s-0.9,2.21-3.2,4.38-0.07,3.48,3.11,5.15a31.12,31.12,0,0,0,5.94,2.57c0.22,4.92,4.84,8.85,10.51,8.85s10.25-3.91,10.51-8.82a24.74,24.74,0,0,0,8.1-4.36C136.15,181.33,134.06,181.79,132.64,179.85ZM114.07,194.5a6.46,6.46,0,1,1,6.44-6.46A6.46,6.46,0,0,1,114.07,194.5Z"/></svg>