<svg id="Layer_1" data-name="Layer 1" xmlns="http://www.w3.org/2000/svg" viewBox="0 0 227.05 228.46"><defs><style>.cls-1{fill:#6696a7;}.cls-2{fill:#e6c5a1;}.cls-3{fill:#f5d7b3;}.cls-4,.cls-6{fill:#c89f81;}.cls-4{opacity:0.7;}.cls-5{fill:#d8ad8b;}.cls-7{fill:#e4bea0;}.cls-8{fill:#ca666c;}.cls-9{fill:#d96f71;}.cls-10{fill:#483644;}.cls-11{fill:#644e53;}.cls-12{fill:#5d180f;}</style></defs><title>1-81</title><rect class="cls-1" width="227.05" height="228.46"/><path class="cls-2" d="M118.09,139.79V228H70.24l-1.17-.5c0-47.32,29.29-50.85,29.29-50.85H98.6a3.58,3.58,0,0,0,.64-0.13c2.42-.67,4.07-4.24,5.16-9.34,0.21-.89.37-1.79,0.51-2.76,0.27-1.62.51-3.33,0.67-5.12,0.11-1.08.19-2.15,0.3-3.26,0.43-5.42.57-11.3,0.57-16.88C106.45,139.15,112.89,139.79,118.09,139.79Z"/><path class="cls-3" d="M167.29,227.49s-0.44.17-1.14,0.5H118.09v-88.2h0.11c5.2,0,11.67-.64,11.67-0.64,0,5.54.14,11.37,0.57,16.74,0.1,1.09.21,2.16,0.3,3.21,0.21,1.85.41,3.6,0.68,5.24v0c0.1,0.74.23,1.41,0.37,2.08,1,4.94,2.48,8.57,4.62,9.78a3.44,3.44,0,0,0,.51.2,2.86,2.86,0,0,0,1.08.2S167.29,180.17,167.29,227.49Z"/><path class="cls-4" d="M131.41,164.35v0a15.47,15.47,0,0,1-13.26,7.23h0c-7.65,0-12.08-5.58-13.23-7.2,0.28-1.62.51-3.33,0.68-5.11,0.1-1.08.21-2.16,0.31-3.27A52.24,52.24,0,0,0,118,157.62h0.14a49.32,49.32,0,0,0,12.35-1.72c0.09,1.08.2,2.16,0.3,3.2C130.94,160.94,131.14,162.69,131.41,164.35Z"/><path class="cls-5" d="M118,45c-49.94-.08-50.23,40.13-48,66.36-3.43-6.16-13.55-3.87-12.72,6,0.79,9.43,15.11,13.71,14.91,12.67,4.08,21.37,27.62,33.23,45.82,34.92h0.39V45H118Z"/><path class="cls-6" d="M59.82,113.17a4.94,4.94,0,0,1,7.33-1.32,3.84,3.84,0,0,1,1.18,4.36c-0.36,1.27-1.76,1.38-1.41,3.29,0.37,2.17,1.42,2.31,2,2.8a4.62,4.62,0,0,1,1.7,1.78,4.48,4.48,0,0,1,.23,2.72c-0.39,1.57-2.77.33-4.37-.37a29.81,29.81,0,0,1-5.24-4.07C59.13,120.1,58.15,115.7,59.82,113.17Z"/><path class="cls-7" d="M118.29,45c49.95-.08,50.24,40.13,48,66.36,3.42-6.16,13.55-3.87,12.72,6-0.8,9.43-15.11,13.71-14.91,12.67-4.09,21.37-27.62,33.23-45.83,34.92h-0.38V45h0.38Z"/><path class="cls-6" d="M176.88,113.17a4.93,4.93,0,0,0-7.32-1.32,3.85,3.85,0,0,0-1.19,4.36c0.35,1.27,1.76,1.38,1.42,3.29-0.37,2.17-1.42,2.31-2,2.8a4.56,4.56,0,0,0-1.72,1.78,4.71,4.71,0,0,0-.22,2.72c0.38,1.57,2.77.33,4.37-.37a30.13,30.13,0,0,0,5.24-4.07C177.57,120.1,178.55,115.7,176.88,113.17Z"/><path class="cls-2" d="M117.79,56.39c-16.68,0-28.89,4.61-36.28,13.7-10.32,12.71-9.92,32.12-6.11,46.05,1.16,4.25,1.75,15.73,2.56,19.95C81.55,154.92,103.4,165,117.79,165h0.38V56.39h-0.38Z"/><path class="cls-3" d="M154,70.11c-7.34-9-19.4-13.64-35.81-13.72V164.95c16.43-.17,36.07-11.16,39.45-28.86,0.79-4.22,1.39-15.69,2.56-19.95C164,102.25,164.34,82.86,154,70.11Z"/><path class="cls-8" d="M126.57,147.93s-3.77,4-8.42,4-8.2-4-8.2-4a54.09,54.09,0,0,1,8.2-.61A68.18,68.18,0,0,1,126.57,147.93Z"/><path class="cls-9" d="M120.54,146.07a2.19,2.19,0,0,0-2.39,1.83,2.19,2.19,0,0,0-2.38-1.83c-1.32,0-6,1.87-6,1.87s4.59,0.49,5.91.49,2.47,0.52,2.5-.46c0,1,1,.6,2.28.6s6.14-.63,6.14-0.63S121.87,146.07,120.54,146.07Z"/><path class="cls-10" d="M69.13,151a0.77,0.77,0,0,1,0,.12C69.43,151.44,69.37,151.35,69.13,151Z"/><path class="cls-11" d="M167.39,227.49a7.54,7.54,0,0,0-1.14.5H70.35a11.5,11.5,0,0,0-1.17-.5c0-11,1.58-19.61,4.06-26.36,10.77-7.4,33-7.29,45,4.61,0,0,18.53-15.19,37.35-7.19a27.68,27.68,0,0,1,8.92,6A81.57,81.57,0,0,1,167.39,227.49Z"/><path class="cls-12" d="M102.07,167.6c0,1.19,6.42.16,4.17,17.48s-21.52,14.49-27,23.75A29.65,29.65,0,0,0,75.62,228H67.44l1.73-5.92a22.56,22.56,0,0,1,1.36-14.89c3.58-7.46-.08-11.87.36-15s5.31-10.22,9.8-11.86,4.22-.56,9.9-1.9,12.07-4.56,12.07-8.13S102.07,167.6,102.07,167.6Z"/><path class="cls-12" d="M134.13,167.12c0,1.19-6.43.16-4.18,17.48s21.52,14.48,27,23.74S160.33,228,160.33,228h8l-1-6.27a24.57,24.57,0,0,0-1.73-15c-3.59-7.46.06-11.88-.37-15s-5.31-10.21-9.79-11.85-4.38-.18-10.07-1.53-11.91-4.93-11.91-8.51S134.13,167.12,134.13,167.12Z"/><path class="cls-11" d="M65.46,104.06s13.16-18.87,34.87-21.51,43,1.85,56.46,12.73S172,103.87,172,103.87a29,29,0,0,0,1.65-5.76c0.87-4.57,4.13-7.07,3.41-9.53s-2.54-9.63-2.18-12-4-15.53-14.83-24.08S138.72,27,112,28,90.21,35,84.68,37.07,68.49,39,61.6,60.75c-3,9.46-.63,15.75-0.87,20.71-0.3,6.46-2.6,10.32-2.36,12.45C58.82,97.71,65.46,104.06,65.46,104.06Z"/></svg>