<svg id="Layer_1" data-name="Layer 1" xmlns="http://www.w3.org/2000/svg" viewBox="0 0 227.05 228.46"><defs><style>.cls-1{fill:#b5ca8a;}.cls-2{fill:#e6c5a1;}.cls-3{fill:#f5d7b3;}.cls-4,.cls-6{fill:#c89f81;}.cls-4{opacity:0.7;}.cls-5{fill:#d8ad8b;}.cls-7{fill:#e4bea0;}.cls-8{fill:#ca666c;}.cls-9{fill:#d96f71;}.cls-10{fill:#fcfcfc;}.cls-11{fill:#3c2a1f;}</style></defs><title>1-81</title><rect class="cls-1" width="227.05" height="228.46"/><path class="cls-2" d="M112.4,147.6v81H65.55l-1.15-.46c0-29.6,13.31-40.54,21.79-44.52a24.57,24.57,0,0,1,6.9-2.19h0.23a5.11,5.11,0,0,0,.62-0.13c2.37-.62,4-3.89,5.06-8.59,0.2-.8.36-1.63,0.49-2.53,0.26-1.49.49-3.07,0.66-4.7,0.1-1,.2-2,0.3-3,0.42-5,.55-10.39.55-15.52C101,147,107.31,147.6,112.4,147.6Z"/><path class="cls-3" d="M160.56,228.19s-0.42.15-1.11,0.46h-47v-81h0.1c5.09,0,11.43-.59,11.43-0.59,0,5.11.13,10.45,0.56,15.39,0.09,1,.19,2,0.3,2.93,0.2,1.7.39,3.31,0.65,4.83v0c0.09,0.68.23,1.3,0.36,1.91,1,4.55,2.43,7.89,4.53,9a3.67,3.67,0,0,0,.49.18,2.94,2.94,0,0,0,1.05.19,22.13,22.13,0,0,1,5.64,1.63C145.91,186.6,160.56,197.09,160.56,228.19Z"/><path class="cls-4" d="M125.92,167.18v0a14.94,14.94,0,0,1-12.8,7H113c-7.36,0-11.63-5.39-12.74-7,0.26-1.56.48-3.21,0.65-4.94,0.1-1,.19-2.08.3-3.14a50.85,50.85,0,0,0,11.65,1.53H113A48.22,48.22,0,0,0,125,159c0.09,1,.19,2.08.29,3.09C125.46,163.89,125.66,165.58,125.92,167.18Z"/><path class="cls-5" d="M113,51.91C64.78,51.82,64.5,90.66,66.64,116c-3.31-6-13.09-3.74-12.29,5.78C55.12,130.89,68.94,135,68.76,134c3.95,20.63,26.68,32.1,44.25,33.73h0.37V51.92H113Z"/><path class="cls-6" d="M56.78,117.75a4.76,4.76,0,0,1,7.06-1.28A3.73,3.73,0,0,1,65,120.69c-0.34,1.22-1.7,1.32-1.36,3.18,0.36,2.09,1.38,2.22,2,2.71a4.35,4.35,0,0,1,1.65,1.71,4.4,4.4,0,0,1,.21,2.63c-0.37,1.51-2.67.31-4.22-.36a28.9,28.9,0,0,1-5.06-3.92C56.11,124.44,55.16,120.2,56.78,117.75Z"/><path class="cls-7" d="M113.25,51.91c48.24-.09,48.52,38.75,46.37,64.08,3.31-6,13.09-3.74,12.29,5.78-0.77,9.12-14.6,13.25-14.4,12.24-3.95,20.63-26.68,32.1-44.27,33.73h-0.37V51.92h0.37Z"/><path class="cls-6" d="M169.84,117.75a4.76,4.76,0,0,0-7.07-1.28,3.73,3.73,0,0,0-1.14,4.22c0.34,1.22,1.7,1.32,1.37,3.18-0.36,2.09-1.38,2.22-2,2.71a3.72,3.72,0,0,0-1.86,4.34c0.37,1.51,2.67.31,4.22-.36a29.09,29.09,0,0,0,5.06-3.92C170.5,124.44,171.44,120.2,169.84,117.75Z"/><path class="cls-2" d="M112.77,62.89c-16.12,0-27.9,4.46-35.05,13.24-10,12.27-9.58,31-5.9,44.48,1.12,4.11,1.69,15.2,2.47,19.27,3.47,18.19,24.57,27.88,38.48,27.88h0.37V62.91h-0.37Z"/><path class="cls-3" d="M147.72,76.17C140.64,67.43,129,63,113.14,62.91V167.76C129,167.59,148,157,151.22,139.88c0.77-4.07,1.35-15.16,2.47-19.27C157.36,107.19,157.72,88.48,147.72,76.17Z"/><path class="cls-8" d="M121.24,151.32s-3.64,3.9-8.13,3.9-7.92-3.82-7.92-3.82a51.69,51.69,0,0,1,7.92-.59A65.18,65.18,0,0,1,121.24,151.32Z"/><path class="cls-9" d="M115.41,149.52a2.11,2.11,0,0,0-2.3,1.77,2.11,2.11,0,0,0-2.3-1.77c-1.27,0-5.83,1.8-5.83,1.8s4.44,0.47,5.71.47,2.4,0.5,2.42-.45c0,1,.94.59,2.19,0.59s5.93-.61,5.93-0.61S116.69,149.52,115.41,149.52Z"/><path class="cls-10" d="M160.56,228.16s-0.42.17-1.09,0.49H109.9c-0.45-2.18-1-4.58-1.45-6.89-1-5-1.94-9.38-1.94-9.38s1.43-1.17,3.53-3c0.88-.72,1.88-1.59,3-2.57,7.57-6.52,19.7-17.6,24.78-26.08a31.59,31.59,0,0,1,10.82,8,40.18,40.18,0,0,1,7.14,11.52C158.65,207.15,160.56,216.2,160.56,228.16Z"/><path class="cls-10" d="M110.59,228.65H94.26c-6.43-9.19-14.39-24-19.39-36.42a33.87,33.87,0,0,1,10-9.64A138.67,138.67,0,0,0,110.59,228.65Z"/><path class="cls-10" d="M64.46,227.64s0.42,0.16,1.1.49h49.55c0.46-2.18,1-4.58,1.46-6.89,1-5,2-9.39,2-9.39s-1.44-1.17-3.54-3c-0.87-.73-1.88-1.6-3-2.57-7.58-6.53-19.71-17.6-24.79-26.08a31.78,31.78,0,0,0-10.83,8,40.46,40.46,0,0,0-7.13,11.52C66.37,206.63,64.46,215.68,64.46,227.64Z"/><path class="cls-11" d="M79.17,104.21h0Z"/><path class="cls-11" d="M161.12,62.45c-4.33-6.67-4.64-4.79-4.64-4.79s4.35-18.2-22.69-22.23a63.11,63.11,0,0,0-10.61-.31l3.68,3.73s-14.21-4.86-33-1.95c-13.66,2.12-23,8.85-30.71,19.84C58,64.08,56.38,74.92,56.38,74.92l7.07-9.44a47.09,47.09,0,0,0-7.07,31.88C60.56,129.08,75.24,135,75.24,135s-10.11-19-3.43-31.34C83,83,103,82.33,103,82.33A28.4,28.4,0,0,0,79.2,104.11a0.94,0.94,0,0,0,0,.1c0.19-.62,2.16-6.12,9.45-8.93,4.44-1.7,10.24-1.65,16.89-3.4a35.3,35.3,0,0,0-7.07,16.46s5.88-9.5,20.26-14.92l2.68-1c-4.24,5.48-2.73,14.7-1.37,16.53,0,0-.49-8.31,17.57-13.5,10.39-3,12.06-8.89,12.06-8.89s-0.07,5.85,1.33,9.58c1.62,4.34,6.23,7.17,6.55,11.08,0.6,7.28-3.31,20.93-3.31,20.93l5.85-4.6c3-10.61,5.86-28.39,5.86-36.57S164.41,67.51,161.12,62.45Z"/></svg>