<svg id="Layer_1" data-name="Layer 1" xmlns="http://www.w3.org/2000/svg" viewBox="0 0 227.06 228.47"><defs><style>.cls-1{fill:#f7ae2b;}.cls-2{fill:#611b1a;}.cls-3{fill:#e6c5a1;}.cls-4{fill:#f5d7b3;}.cls-5,.cls-7{fill:#c89f81;}.cls-5{opacity:0.7;}.cls-6{fill:#d8ad8b;}.cls-8{fill:#e4bea0;}.cls-9{fill:#a01a1b;}.cls-10{fill:#c15a64;}</style></defs><title>1-81</title><rect class="cls-1" width="227.06" height="228.47"/><path class="cls-2" d="M185.53,101.74c0,10.87-33.2,36.38-68.84,36.38s-68.84-22-68.84-32.87,32-15.18,67.63-15.18S185.53,90.86,185.53,101.74Z"/><path class="cls-3" d="M117,147v81.48H72.78c-0.71-.31-1.09-0.46-1.09-0.46,0-43.71,27.07-47,27.07-47,2.69,0,4.43-3.48,5.58-8.77,0.19-.8.34-1.64,0.46-2.54,0.26-1.49.46-3.07,0.62-4.72,0.1-1,.19-2,0.28-3,0.4-5,.52-10.45.52-15.6C106.23,146.38,112.19,147,117,147Z"/><path class="cls-4" d="M162.44,228s-0.4.15-1.05,0.46H117V147h0.09c4.81,0,10.79-.59,10.79-0.59,0,5.13.12,10.5,0.52,15.47,0.1,1,.2,2,0.29,3,0.18,1.7.37,3.31,0.61,4.84v0c0.11,0.69.22,1.29,0.34,1.92,1.15,5.62,2.95,9.42,5.73,9.42C135.37,181,162.44,184.29,162.44,228Z"/><path class="cls-5" d="M129.29,169.65v0a14.25,14.25,0,0,1-12.24,6.68H117c-7,0-11.13-5.15-12.18-6.65,0.26-1.49.46-3.07,0.62-4.72,0.1-1,.19-2,0.28-3a48.64,48.64,0,0,0,11.16,1.45H117a45.36,45.36,0,0,0,11.4-1.59c0.1,1,.2,2,0.29,3C128.86,166.51,129,168.12,129.29,169.65Z"/><path class="cls-6" d="M117.12,53.52c-46.83,0-47.09,39.29-45,65-3.21-6.09-12.71-4.21-11.93,5.38,0.75,9.26,14.17,14,14,13C78,158,100,170.22,117.12,170.22l0.35,0V53.52h-0.35Z"/><path class="cls-7" d="M63.16,118.22a4.43,4.43,0,0,1,6.76-1.29A3.86,3.86,0,0,1,71,121.19c-0.32,1.23-1.62,1.33-1.3,3.19a3.34,3.34,0,0,0,1.88,2.73,4.35,4.35,0,0,1,1.58,1.73,4.76,4.76,0,0,1,.21,2.64c-0.36,1.53-2.56.32-4-.35a28.78,28.78,0,0,1-4.85-3.95C62.53,125,61.62,120.68,63.16,118.22Z"/><path class="cls-8" d="M117.35,53.52c46.83,0,47.1,39.29,45,65,3.2-6.09,12.7-4.21,11.93,5.38-0.75,9.26-14.17,14-14,13-3.83,21.16-25.86,33.38-43,33.38l-0.36,0V53.52h0.36Z"/><path class="cls-7" d="M171.3,119.83a4.43,4.43,0,0,0-6.76-1.29,3.89,3.89,0,0,0-1.09,4.26c0.33,1.23,1.62,1.33,1.31,3.2a3.32,3.32,0,0,1-1.88,2.72,4.3,4.3,0,0,0-1.59,1.73,4.77,4.77,0,0,0-.2,2.64c0.36,1.52,2.57.32,4-.35A27.74,27.74,0,0,0,170,128.8C171.93,126.58,172.84,122.3,171.3,119.83Z"/><path class="cls-3" d="M116.72,64.59C101.3,64.59,90,69.08,83.2,77.93c-9.53,12.35-9.17,31.23-5.65,44.79,1.07,4.14,1.63,15.31,2.37,19.4,3.33,18.34,23.5,28.1,36.8,28.1l0.36,0V64.6h-0.36Z"/><path class="cls-4" d="M150.15,77.94c-6.78-8.79-17.92-13.27-33.08-13.35V170.2c15.17-.16,33.3-10.85,36.43-28.08,0.74-4.09,1.29-15.26,2.37-19.4C159.37,109.2,159.72,90.34,150.15,77.94Z"/><path class="cls-9" d="M154.45,194a31.3,31.3,0,0,0-14.07-12.21l-23,39.08-0.25.43-0.25-.43-23-39.08A31.3,31.3,0,0,0,79.86,194a18.87,18.87,0,0,1,3.66,7.49c2.91,10.47,1.23,23.25.65,27h66c-0.59-3.78-2.27-16.55.65-27A18.7,18.7,0,0,1,154.45,194Z"/><path class="cls-9" d="M163.43,69.76h-90a14,14,0,0,1,0-2.66c3.23-12.55,15.23-27.6,43.75-27.6,27.63,0,42.29,14.71,46.22,27.6A12.4,12.4,0,0,1,163.43,69.76Z"/><path class="cls-10" d="M162.92,84.66h-90V68.5S88.2,57.28,116.71,57.28c27.63,0,46.21,11.22,46.21,11.22V84.66Z"/><path class="cls-9" d="M115.48,90.07c-25,.8-67,12.71-67,12.71s26-32.28,66.23-32.33c35.73,0,70.84,29.09,70.84,29.09S131.94,89.54,115.48,90.07Z"/></svg>