<svg id="Layer_1" data-name="Layer 1" xmlns="http://www.w3.org/2000/svg" viewBox="0 0 227.06 228.47"><defs><style>.cls-1{fill:#6696a7;}.cls-2{fill:#e6c5a1;}.cls-3{fill:#f5d7b3;}.cls-4,.cls-6{fill:#c89f81;}.cls-4{opacity:0.7;}.cls-5{fill:#d8ad8b;}.cls-7{fill:#e4bea0;}.cls-8{fill:#ca666c;}.cls-9{fill:#d96f71;}.cls-10{fill:#9d5256;}.cls-11{fill:#562d17;}.cls-12{fill:#fcfcfc;}</style></defs><title>1-81</title><rect class="cls-1" width="227.06" height="228.47"/><path class="cls-2" d="M120.5,142.6v85.19H74.29l-1.14-.48c0-27.8,10.48-40,18.68-45.21a25.35,25.35,0,0,1,9.62-3.9h0.22a3.07,3.07,0,0,0,.62-0.13c2.34-.65,3.92-4.09,5-9a27,27,0,0,0,.49-2.69c0.26-1.55.49-3.22,0.65-4.93,0.09-1,.19-2.08.29-3.16,0.42-5.23.55-10.9,0.55-16.3C109.26,142,115.48,142.6,120.5,142.6Z"/><path class="cls-3" d="M168,227.31s-0.42.17-1.1,0.48H120.5V142.6h0.1c5,0,11.28-.62,11.28-0.62,0,5.37.12,11,.55,16.18,0.09,1,.18,2.08.29,3.08,0.2,1.79.39,3.48,0.65,5.07v0c0.1,0.71.22,1.36,0.36,2,1,4.77,2.4,8.28,4.48,9.45a1.54,1.54,0,0,0,.48.2,2.7,2.7,0,0,0,1,.19,23.22,23.22,0,0,1,6.87,2.34C155,184.76,168,196.3,168,227.31Z"/><path class="cls-4" d="M133.36,166.34v0a14.93,14.93,0,0,1-12.8,7h-0.07c-7.35,0-11.63-5.39-12.73-6.95,0.27-1.56.49-3.21,0.64-4.94,0.11-1,.2-2.08.3-3.15a50.26,50.26,0,0,0,11.66,1.53h0.13a47.23,47.23,0,0,0,11.93-1.66c0.11,1,.2,2.09.29,3.09C132.9,163.06,133.09,164.75,133.36,166.34Z"/><path class="cls-5" d="M120.45,51.08C72.21,51,71.94,89.83,74.08,115.16c-3.31-5.95-13.08-3.73-12.29,5.78,0.77,9.12,14.6,13.25,14.41,12.24,3.94,20.64,26.68,32.1,44.25,33.73h0.37V51.08h-0.37Z"/><path class="cls-6" d="M64.22,116.92a4.76,4.76,0,0,1,7.07-1.28,3.72,3.72,0,0,1,1.14,4.22c-0.34,1.22-1.69,1.31-1.36,3.18,0.36,2.09,1.39,2.22,2,2.71a3.75,3.75,0,0,1,1.86,4.34c-0.37,1.52-2.68.31-4.22-.35a29.74,29.74,0,0,1-5.07-3.93C63.55,123.61,62.6,119.37,64.22,116.92Z"/><path class="cls-7" d="M120.69,51.08c48.23-.09,48.52,38.75,46.37,64.08,3.31-5.95,13.09-3.73,12.29,5.78-0.78,9.12-14.6,13.25-14.4,12.24-3.95,20.64-26.68,32.1-44.26,33.73h-0.37V51.08h0.37Z"/><path class="cls-6" d="M177.28,116.92a4.77,4.77,0,0,0-7.08-1.28,3.73,3.73,0,0,0-1.14,4.22c0.34,1.22,1.7,1.31,1.37,3.18-0.36,2.09-1.38,2.22-2,2.71a4.36,4.36,0,0,0-1.65,1.72,4.44,4.44,0,0,0-.22,2.62c0.37,1.52,2.68.31,4.22-.35a29.6,29.6,0,0,0,5.07-3.93C177.94,123.61,178.89,119.37,177.28,116.92Z"/><path class="cls-2" d="M120.2,62.07c-16.11,0-27.9,4.46-35,13.24-10,12.27-9.59,31-5.91,44.47C80.38,123.9,81,135,81.73,139c3.48,18.2,24.57,27.89,38.47,27.89h0.37V62.08H120.2Z"/><path class="cls-3" d="M155.16,75.33c-7.09-8.72-18.74-13.17-34.59-13.25V166.93c15.86-.17,34.82-10.79,38.09-27.88,0.78-4.08,1.35-15.15,2.47-19.27C164.8,106.36,165.16,87.64,155.16,75.33Z"/><path class="cls-8" d="M128.68,150.49s-3.64,3.9-8.13,3.9-7.92-3.82-7.92-3.82a51.93,51.93,0,0,1,7.92-.59A65.75,65.75,0,0,1,128.68,150.49Z"/><path class="cls-9" d="M122.86,148.68a2.11,2.11,0,0,0-2.31,1.78,2.11,2.11,0,0,0-2.3-1.78c-1.27,0-5.83,1.81-5.83,1.81s4.44,0.47,5.72.47,2.38,0.5,2.41-.44c0,1,.93.59,2.2,0.59s5.93-.62,5.93-0.62S124.13,148.68,122.86,148.68Z"/><path class="cls-10" d="M168,227.31s-0.42.17-1.1,0.48H74.06l-1.14-.48c0-27.8,11.45-42.42,21.48-46.77,7.53,7.63,16.42,19.54,18.81,21.79,4.06,3.82,6.54,10.33,9.09,8.69s16.83-21.77,24.23-30.48C154.92,184.76,168,196.3,168,227.31Z"/><path class="cls-11" d="M99.93,180.25c0.92,1.91,11.11,13.17,13.9,16.5s4.19,2.84,6,9.22,0.6,21.76.6,21.76-0.89-13.06-4.59-16.38-24-13.49-24-13.49l7.59-2.53L78.93,187.1A81.35,81.35,0,0,1,91.29,180c5.92-2.56,10.86-4.1,10.86-4.1Z"/><path class="cls-11" d="M141.27,180.66c-0.93,1.92-11.12,13.18-13.9,16.51s-4.18,2.83-6,9.23-0.6,21.74-.6,21.74,0.89-13.06,4.59-16.38,24-13.49,24-13.49l-7.59-2.53,20.56-8.22a82.92,82.92,0,0,0-12.36-7.11c-5.93-2.56-10.87-4.1-10.87-4.1Z"/><path class="cls-12" d="M158.29,37.9A2.44,2.44,0,0,0,155.88,40H72.12a2.45,2.45,0,1,0,0,.74h83.76A2.44,2.44,0,1,0,158.29,37.9Z"/><path class="cls-12" d="M171.24,81.46c-0.84-6.11-2.27-12.74-4.47-17.64C163.2,56,156.85,51.42,147.5,47c0-.17,0-0.34,0-0.52,0-13.54-12-24.52-26.82-24.52-14,0-25.53,9.85-26.69,22.4C75.87,49.23,68.9,70,67.46,79.47c-0.1.68-.2,1.33-0.29,2-1.94,14.25-.1,20.13,1.52,23.31a22.25,22.25,0,0,1,1.69,3.38c0.84,3.38,1.78,4.48,3.46,8.06a11.18,11.18,0,0,1,3.38,4.64c1.56,4,2.14,3.35,2.14,3.35S77.19,110,77,104.77a5.64,5.64,0,0,1,0-.77c0-2.54,1.17-15.24,9.59-22.54a12.1,12.1,0,0,1,1.27-1c7.09-5.3,19.19-3.05,20.52-3.05,0.25,0,3,2.11,7,4.1S124,85.22,128.88,85c30.2-1.53,36.56,14.68,37.24,18.06,0,0.55-.1,1.14-0.13,1.72-0.37,4.2-.82,9.07-1.14,12.35-0.55,3.89-1,7.08-1,7.08s0.62,0.67,2.14-3.35a10.89,10.89,0,0,1,2.82-4.16c0.16-2.21,2.23-7.93,2.53-8.54a13.8,13.8,0,0,0,.72-3.38,64.85,64.85,0,0,0,.57-7.69A128.91,128.91,0,0,0,171.24,81.46Z"/></svg>