<svg id="Layer_1" data-name="Layer 1" xmlns="http://www.w3.org/2000/svg" viewBox="0 0 227.05 228.47"><defs><style>.cls-1{fill:#b3b616;}.cls-2{fill:#414d56;}.cls-3{fill:#e6c5a1;}.cls-4{fill:#f5d7b3;}.cls-5,.cls-7{fill:#c89f81;}.cls-5{opacity:0.7;}.cls-6{fill:#d8ad8b;}.cls-8{fill:#e4bea0;}.cls-9{fill:#411b17;}.cls-10{fill:#77160e;}.cls-11{fill:#62a6b0;}.cls-12{fill:#2e2a27;}.cls-13{fill:#fff8f6;}</style></defs><title>1-81</title><rect class="cls-1" width="227.05" height="228.47"/><path class="cls-2" d="M134.46,69.64c-8,0-15.31,4.46-21,11.81C107.63,72,99.33,66.06,90.09,66.06c-17.82,0-32.28,22-32.28,49.14s14.45,49.14,32.28,49.14c8,0,15.32-4.47,21-11.82,5.88,9.46,14.18,15.38,23.4,15.38,17.82,0,32.28-22,32.28-49.14S152.29,69.64,134.46,69.64Z"/><path class="cls-3" d="M111.57,133.68v94.24H60.44l-1.25-.54c0-50.55,31.29-54.32,31.29-54.32h0.25a4.88,4.88,0,0,0,.68-0.14c2.59-.73,4.34-4.53,5.52-10a12.29,12.29,0,0,0,.25-1.29,16.11,16.11,0,0,0,.28-1.65c0.3-1.72.55-3.55,0.72-5.46,0.12-1.15.22-2.29,0.32-3.48,0.47-5.8.61-12.08,0.61-18C99.11,133,106,133.68,111.57,133.68Z"/><path class="cls-4" d="M164.13,227.38s-0.46.18-1.22,0.54H111.57V133.68h0.11c5.56,0,12.47-.68,12.47-0.68,0,5.92.14,12.15,0.61,17.89,0.11,1.15.22,2.31,0.33,3.42,0.21,2,.43,3.84.72,5.6v0a10.36,10.36,0,0,0,.17,1.11c0.09,0.36.15,0.76,0.22,1.11,1.08,5.28,2.65,9.16,5,10.46a3.74,3.74,0,0,0,.54.21,3,3,0,0,0,1.14.22S164.13,176.83,164.13,227.38Z"/><path class="cls-5" d="M125.78,159.91v0a16.49,16.49,0,0,1-14.16,7.73h0c-8.17,0-12.9-6-14.12-7.68,0.28-1.73.53-3.56,0.71-5.46,0.1-1.15.22-2.3,0.33-3.48a56.68,56.68,0,0,0,12.9,1.68h0.15a53.08,53.08,0,0,0,13.18-1.83c0.11,1.14.23,2.3,0.33,3.41C125.28,156.28,125.48,158.15,125.78,159.91Z"/><path class="cls-6" d="M111.51,32.4c-53.36-.09-53.67,42.87-51.29,70.9-3.66-6.59-14.48-4.15-13.6,6.38,0.85,10.08,16.15,14.65,15.94,13.54,4.36,22.83,29.51,35.51,49,37.3,0.14,0,.28,0,0.41,0V32.41h-0.41Z"/><path class="cls-7" d="M49.3,105.23a5.28,5.28,0,0,1,7.83-1.41,4.13,4.13,0,0,1,1.26,4.68C58,109.84,56.51,110,56.88,112c0.4,2.31,1.53,2.46,2.16,3a4.81,4.81,0,0,1,1.83,1.91,4.87,4.87,0,0,1,.23,2.9c-0.4,1.66-3,.34-4.67-0.4a32.21,32.21,0,0,1-5.6-4.33C48.56,112.65,47.51,107.94,49.3,105.23Z"/><path class="cls-8" d="M111.78,32.4c53.35-.09,53.67,42.87,51.29,70.9,3.67-6.59,14.49-4.15,13.6,6.38-0.86,10.08-16.15,14.65-15.93,13.54-4.37,22.83-29.52,35.51-49,37.3-0.13,0-.28,0-0.4,0V32.41h0.4Z"/><path class="cls-7" d="M174.36,105.23a5.28,5.28,0,0,0-7.83-1.41,4.15,4.15,0,0,0-1.26,4.68c0.38,1.34,1.88,1.46,1.52,3.51-0.4,2.31-1.53,2.46-2.18,3a4.15,4.15,0,0,0-2.07,4.81c0.41,1.66,3,.34,4.68-0.4a31.89,31.89,0,0,0,5.6-4.33C175.09,112.65,176.15,107.94,174.36,105.23Z"/><path class="cls-3" d="M111.22,44.57c-17.82,0-30.86,4.93-38.76,14.64-11,13.56-10.6,34.31-6.53,49.2,1.23,4.55,1.87,16.81,2.74,21.31,3.85,20.13,27.18,30.85,42.54,30.85h0.42v-116h-0.42Z"/><path class="cls-4" d="M149.9,59.23c-7.84-9.65-20.72-14.58-38.26-14.66v116c17.54-.18,38.53-11.93,42.13-30.84,0.85-4.5,1.5-16.76,2.74-21.31C160.57,93.55,161,72.85,149.9,59.23Z"/><path class="cls-9" d="M120.6,142.37s-4,4.33-9,4.33-8.76-4.22-8.76-4.22a57.29,57.29,0,0,1,8.76-.65A74,74,0,0,1,120.6,142.37Z"/><path class="cls-10" d="M114.17,140.38a2.35,2.35,0,0,0-2.56,2,2.32,2.32,0,0,0-2.53-2c-1.42,0-6.46,2-6.46,2s4.91,0.53,6.32.53,2.65,0.55,2.67-.49c0,1,1,.65,2.44.65s6.55-.69,6.55-0.69S115.58,140.38,114.17,140.38Z"/><path class="cls-11" d="M164.23,227.46A9.24,9.24,0,0,0,163,228H60.54c-0.83-.39-1.25-0.54-1.25-0.54,0-11.81,1.68-21,4.33-28.3,11.51-7.94,30,5.83,48,6.69,10.14,0.48,19.79-11.12,39.9-2.54,3.84,1.62,7-3.08,9.53-.49A87.83,87.83,0,0,1,164.23,227.46Z"/><path class="cls-12" d="M164.81,227.37s-0.46.18-1.23,0.55H60.45l-1.26-.55c0-51.21,31.51-55,31.51-55h0.25c0.21,0,1.33.27,1.54,0.19,2.6-.73-2.84-1.28-4.14,8.91-1.12,8.54,4.8,16.19-.76,19,1.69,2,15.67,14.05,20.5,13.87h7.22c4.87,0.18,19.3-12.19,21-14.38-5.6-2.77,1-10.57-.79-19s-3.7-8.49-3.52-8.46a4.34,4.34,0,0,0,1.35-.13S164.81,176.17,164.81,227.37Z"/><path class="cls-13" d="M132,172.11c-1.29,2.19-4.19,4.41-10.46,5.1a97.21,97.21,0,0,1-9.86.61c-12.51.07-17.79-3.05-19.87-5.83,2.26-.85,3.84-4.09,4.95-8.69,0.1-.35.22-0.78,0.29-1.19,0-.21.11-0.42,0.14-0.65,0.58,1.11,2.26,3,7.1,3.64h0a58,58,0,0,0,7.35.53,27.49,27.49,0,0,0,9.17-1.33l0,0c4.11-1.51,5.05-3.71,5.05-3.71l0.25,0.19c0,0.22.08,0.4,0.11,0.61,1.07,5.28,2.66,9.16,4.95,10.45a5.65,5.65,0,0,0,.54.22A1,1,0,0,1,132,172.11Z"/><path class="cls-2" d="M165.36,69.1c-0.64-1.87-1.32-3.62-2-5.28V63.1C163.36,56,157,46.87,146.94,38s-16.42-7.06-24.75-6.81l-0.07.15c-3.66-.77-23.37-4.62-35.09-0.36C74.08,35.66,63.47,43.75,56,65.48s-1.34,39.52.11,47.12c4.59,24,26.66,39.27,26.66,39.27s-5.57-6.42-8.06-12.82A69.24,69.24,0,0,1,69.87,113c0-12.57,12.59-28.13,12.59-28.13s-5.81,9.76-6.95,20.49a29.74,29.74,0,0,0,4.93,19S72.73,110.43,85.06,100a82.18,82.18,0,0,0,9.85-9.92v0C91.8,98.36,98,105.26,98,105.26s-0.11-10.54,6.32-14.13C120,82.4,122.49,78.79,124.69,71.77a16.71,16.71,0,0,0,.59-2.71l14.31,20.33c0.67,0.89,1.77,2.38,3,4.32,3.72,5.63,8.85,14.86,8.85,22.9a69.16,69.16,0,0,1-4.82,26.06c-2.5,6.41-8.07,12.82-8.07,12.82s22.07-15.22,26.67-39.26C166.71,108.62,172.85,90.83,165.36,69.1Z"/></svg>