<svg id="Layer_1" data-name="Layer 1" xmlns="http://www.w3.org/2000/svg" viewBox="0 0 227.05 228.47"><defs><style>.cls-1{fill:#3e8f83;}.cls-2{fill:#15130f;}.cls-3{fill:#e6c5a1;}.cls-4{fill:#f5d7b3;}.cls-5,.cls-7{fill:#c89f81;}.cls-5{opacity:0.7;}.cls-6{fill:#d8ad8b;}.cls-8{fill:#e4bea0;}.cls-9{fill:#e95c12;}.cls-10{fill:#fff8f6;}.cls-11{fill:#b3b616;}.cls-12{fill:#305f6c;}.cls-13{fill:#9163a6;}</style></defs><title>1-81</title><rect class="cls-1" width="227.05" height="228.47"/><path class="cls-2" d="M92.52,137.12c-0.86-.65-16.61-10.38-16.61-10.38,1.08,6.07,1.88,8.54.31,12.65-1.43,3.7-4.16,5.14-5.66,6.43a12,12,0,0,1-5.65,2.28,17.12,17.12,0,0,1-2.31-.19s2.5,1.38,8.77,1.11a10,10,0,0,0,5.4-1.54c-1.24,2-2.41,4.88-1.1,7.55,4.74,9.7-1.58,12.86-1.58,12.86s5.6-.56,8.81-3.4c0,0.07,0,.17,0,0.23,1.43,4.85,5.18,5.39,5.18,5.39s-2.37-.39-1.92-4.9c0.13-1.2,1.37-1.68,2.92-2.49,0.6,4.35,2.56,8.79-1.49,10.61,0,0,6.85-1.37,8.11-5.44a16.4,16.4,0,0,0,.46-2.13,9.81,9.81,0,0,1,.32,1.15c1,5.19-3,10.23-3,10.23s14.21-1.51,14.31-7.17a28.68,28.68,0,0,1,.63-5.61c0.43-1.3,1.29-7.78,1.29-7.78S93.38,137.77,92.52,137.12Z"/><path class="cls-2" d="M151.37,137.12c0.86-.65,16.61-10.38,16.61-10.38-1.08,6.07-1.89,8.54-.31,12.65,1.42,3.7,4.15,5.14,5.66,6.43A11.94,11.94,0,0,0,179,148.1a17.17,17.17,0,0,0,2.3-.19s-2.51,1.38-8.78,1.11a9.9,9.9,0,0,1-5.39-1.54c1.24,2,2.41,4.88,1.09,7.55-4.74,9.7,1.58,12.86,1.58,12.86s-5.6-.56-8.82-3.4a1.32,1.32,0,0,1,0,.23c-1.42,4.85-5.18,5.39-5.18,5.39s2.37-.39,1.91-4.9c-0.12-1.2-1.36-1.68-2.91-2.49-0.61,4.35-2.56,8.79,1.49,10.61,0,0-6.85-1.37-8.1-5.44a16.48,16.48,0,0,1-.46-2.13,11.85,11.85,0,0,0-.33,1.15c-1,5.19,3,10.23,3,10.23S136.13,175.62,136,170a28.88,28.88,0,0,0-.61-5.61c-0.43-1.3-1.3-7.78-1.3-7.78S150.51,137.77,151.37,137.12Z"/><path class="cls-3" d="M121.93,145.22v83.05H76.88l-1.11-.48c0-44.55,27.58-47.87,27.58-47.87,2.75,0,4.52-3.55,5.69-8.94,0.19-.82.34-1.68,0.48-2.6,0.25-1.52.46-3.14,0.63-4.81,0.09-1,.18-2,0.28-3.08,0.41-5.09.54-10.64,0.54-15.89C111,144.62,117,145.22,121.93,145.22Z"/><path class="cls-4" d="M168.25,227.79s-0.41.17-1.07,0.48H121.93V145.22H122c4.9,0,11-.6,11-0.6,0,5.23.12,10.7,0.53,15.77,0.11,1,.19,2,0.29,3,0.19,1.75.37,3.39,0.63,4.94v0c0.1,0.69.22,1.33,0.35,2,1.17,5.73,3,9.6,5.84,9.6C140.66,179.93,168.25,183.25,168.25,227.79Z"/><path class="cls-5" d="M134.47,168.34v0A14.54,14.54,0,0,1,122,175.17h-0.07c-7.18,0-11.34-5.26-12.41-6.78,0.25-1.52.46-3.14,0.63-4.81,0.09-1,.18-2,0.28-3.08A48.75,48.75,0,0,0,121.8,162h0.12a46.44,46.44,0,0,0,11.62-1.61c0.11,1,.19,2,0.29,3C134,165.15,134.22,166.78,134.47,168.34Z"/><path class="cls-6" d="M122.06,50c-47.72,0-48,40-45.87,66.24-3.27-6.21-13-4.29-12.16,5.49,0.77,9.43,14.44,14.3,14.25,13.2,3.92,21.56,26.37,34,43.79,34h0.37V50h-0.37Z"/><path class="cls-7" d="M67.08,117.56A4.49,4.49,0,0,1,74,116.25a3.92,3.92,0,0,1,1.11,4.34c-0.33,1.25-1.65,1.35-1.33,3.26a3.36,3.36,0,0,0,1.91,2.77,4.48,4.48,0,0,1,1.61,1.76,4.68,4.68,0,0,1,.21,2.7c-0.36,1.54-2.6.32-4.11-.37a28.86,28.86,0,0,1-4.93-4C66.42,124.43,65.49,120.08,67.08,117.56Z"/><path class="cls-8" d="M122.3,50c47.72,0,48,40,45.87,66.24,3.27-6.21,12.95-4.29,12.16,5.49-0.76,9.43-14.44,14.3-14.25,13.2-3.92,21.56-26.38,34-43.78,34h-0.37V50h0.37Z"/><path class="cls-7" d="M177.28,117.56a4.5,4.5,0,0,0-6.89-1.31,3.94,3.94,0,0,0-1.12,4.34c0.34,1.25,1.66,1.35,1.33,3.26a3.34,3.34,0,0,1-1.91,2.77,4.46,4.46,0,0,0-1.6,1.76,4.75,4.75,0,0,0-.21,2.7c0.36,1.54,2.61.32,4.12-.37a29.2,29.2,0,0,0,4.93-4C177.94,124.43,178.87,120.08,177.28,117.56Z"/><path class="cls-3" d="M121.65,61.25c-15.71,0-27.2,4.57-34.16,13.59-9.71,12.6-9.34,31.85-5.76,45.66,1.09,4.22,1.66,15.6,2.41,19.79,3.4,18.68,24,28.63,37.51,28.63H122V61.26h-0.37Z"/><path class="cls-4" d="M155.73,74.87c-6.91-9-18.27-13.53-33.72-13.6V168.9c15.46-.17,34-11.07,37.13-28.61,0.75-4.18,1.32-15.57,2.41-19.79C165.13,106.73,165.48,87.5,155.73,74.87Z"/><path class="cls-2" d="M174.21,88.91a12.08,12.08,0,0,0-1-1.95c-0.91-6.83-5.73-20.5-10.45-27.36-4.92-7.14-17-13.45-32.44-15.33s-29,9.09-29,9.09-2.39-3.57-4.44-4.62S89,48.93,89,48.93s4,1.12,4.78,2.17A4.3,4.3,0,0,1,94.52,55s-4.67-2-6.72-2.07c-3.74-.11-8,4.66-8,4.66s3.51-2.48,6.87-2.38a18.33,18.33,0,0,1,4.15,1.48s-5.55.58-15.94,12c-7.85,8.6-7.85,20-7.85,20l6.57-3.78a17.24,17.24,0,0,0-2.54,4.08c-4.85,12.08,1.79,24.19,1.79,24.19S75.07,113.31,77,118a91.55,91.55,0,0,1,4.34,14.09H83.7s-5-19.44-1.62-30C83,99.12,85.51,93.14,89,92.93a12.53,12.53,0,0,0,3.33-6c1-4,6.36-10.7,9.23-12a3.82,3.82,0,0,1,4.5.63s4.52-3.57,12.71-5,12.7,7.35,14.5,12,0.86,6.93.86,6.93,3.49-5.67,3.08-11.34a14.09,14.09,0,0,0-1-4.32c1.08,0.55,5.74,1.85,6.7,14,0.45,5.75-4.72,9.65-4.72,9.65s11.52-4.78,9.13-19.52c2.47,2.65,5,6.39,5.66,9,1,4,9.65,13.29,10.22,15.11,3.35,10.58-1.62,30-1.62,30h2.31A90.73,90.73,0,0,1,168.29,118c2-4.66,4.14-4.87,4.14-4.87S179.05,101,174.21,88.91Zm-39.1-17.29-0.18-.23,0.2,0.19Z"/><path class="cls-9" d="M180.57,98.78C177.3,86.23,168.76,68,162.74,59.59a24.87,24.87,0,0,0-4-4.35,4.28,4.28,0,0,0,1.31-2.36c0.27-2.5,1.49-7.62-2.08-5.82-3.36,1.7.75,2.64-1.22,5.41-2-2.83-8.58-8.65-29.46-16.43-30.08-11.21-37.87-1.66-47.81,3.32s-10.36,10-9.12,13.19,2.49,13.38,4.56,16.06,11.18-1,29,14.7,54.27,23.3,65,38,15.74,9.83,15.74,9.83,1.24-2.9,2.49-6.23S185.14,116.18,180.57,98.78Z"/><path class="cls-10" d="M168.61,227.81l-1.11.47H76.89l-1.14-.47c0-1.33,0-2.66.06-3.92,0.13-2.92.37-5.67,0.74-8.2a53.65,53.65,0,0,1,1.11-6.05c0.16-.85.37-1.67,0.59-2.5,0.32-1.11.63-2.18,1-3.23,0.28-.86.59-1.67,0.91-2.47a43.6,43.6,0,0,1,3.06-6.23,34,34,0,0,1,6.64-8.2,30.1,30.1,0,0,1,5.58-4.09,0.23,0.23,0,0,0,.13-0.06,0.09,0.09,0,0,1,.06,0,22.67,22.67,0,0,0,3.7,4.19c2.16,2.12,5.24,4.9,9.19,8.2,0.26,0.18.54,0.44,0.83,0.67,8.18,6.65,17.53,6.65,25.69,0,0.28-.22.57-0.48,0.82-0.67,4-3.3,7.08-6.08,9.22-8.2a23.64,23.64,0,0,0,3.7-4.19l0,0a0.49,0.49,0,0,0,.13.06,29.59,29.59,0,0,1,5.63,4.09,34.64,34.64,0,0,1,6.63,8.2,39.84,39.84,0,0,1,3,6.23c0.31,0.8.63,1.62,0.91,2.47,0.37,1,.69,2.11,1,3.23,0.22,0.83.41,1.65,0.61,2.5,0.43,1.91.79,3.9,1.07,6.05,0.35,2.53.6,5.29,0.73,8.2C168.58,225.15,168.61,226.48,168.61,227.81Z"/><ellipse class="cls-9" cx="103.52" cy="212.13" rx="4.69" ry="4.7"/><path class="cls-11" d="M119.14,217a2.47,2.47,0,1,1-2.47-2.48A2.48,2.48,0,0,1,119.14,217Z"/><path class="cls-12" d="M143.87,219.31a5.86,5.86,0,1,1-5.86-5.87A5.86,5.86,0,0,1,143.87,219.31Z"/><ellipse class="cls-11" cx="155.98" cy="219.31" rx="1.69" ry="1.7"/><path class="cls-13" d="M150.9,200.14a1.82,1.82,0,1,1-1.82-1.84A1.82,1.82,0,0,1,150.9,200.14Z"/><path class="cls-11" d="M97.27,197.27a2.34,2.34,0,1,1-2.34-2.35A2.35,2.35,0,0,1,97.27,197.27Z"/><ellipse class="cls-11" cx="86.86" cy="216.83" rx="3.13" ry="3.13"/></svg>