<svg id="Layer_1" data-name="Layer 1" xmlns="http://www.w3.org/2000/svg" viewBox="0 0 227.05 228.46"><defs><style>.cls-1{fill:#d9898f;}.cls-2{fill:#422918;}.cls-3{fill:#e6c5a1;}.cls-4{fill:#f5d7b3;}.cls-5,.cls-7{fill:#c89f81;}.cls-5{opacity:0.7;}.cls-6{fill:#d8ad8b;}.cls-8{fill:#e4bea0;}.cls-9{fill:#ca666c;}.cls-10{fill:#d96f71;}.cls-11{fill:#5b1911;}.cls-12{fill:#fff8f6;}.cls-13{fill:#d9d9d9;}.cls-14{fill:#3c3c3b;}</style></defs><title>1-81</title><rect class="cls-1" width="227.05" height="228.46"/><path class="cls-2" d="M124.57,111.46c-2.07,7-4.45,14.9-8.88,22.84s-17.95,18.17-18.43,29.07c-1,23.38,32.06,34.49,45.39,38.47s17.78,4.37,19.26,10.13,0.27,15.38.27,15.38,11.22-6.16,14.4-10.87c6.81-10.13-.64-17-0.64-17s-2.76,2.38.49,7.74,3.26,10.14,2.08,11.52-5.33,5.76-5.33,5.76,20.6-5.86,16.59-22.65c-0.68-2.88-2.56-.77,0,0,5.73,1.71,4.66,11.19,4.66,11.19s14-18.13-14.33-28.39c-2.69-1-17.26-4.59-18.77-16.68-0.84-6.7,4.06-7.28,4.95-15.46,1.16-10.6-14-8.36-19.8-18.34-1.1-1.91,4.38-3,0-8.14-5.27-6.23-7.22-5.73-14.78-9.41S124.57,111.46,124.57,111.46Z"/><path class="cls-3" d="M119,137.59V228h-49a12.41,12.41,0,0,0-1.2-.52c0-13.44,2.3-23.47,5.63-30.89,5.51-12.23,13.8-17.47,19.16-19.68a20.72,20.72,0,0,1,5.23-1.55H99a4.41,4.41,0,0,0,.65-0.14c2.48-.72,4.16-4.34,5.3-9.58,0.21-.92.39-1.83,0.52-2.82,0.27-1.66.51-3.41,0.69-5.27,0.09-1.07.19-2.16,0.3-3.31,0.46-5.59.59-11.62,0.59-17.3C107,136.93,113.64,137.59,119,137.59Z"/><path class="cls-4" d="M169.39,227.47a7.63,7.63,0,0,0-1.17.52H119v-90.4h0.1c5.33,0,12-.66,12-0.66,0,5.68.14,11.66,0.59,17.17,0.09,1.09.21,2.2,0.31,3.27,0.21,1.89.42,3.68,0.69,5.34v0.07c0.1,0.75.24,1.44,0.37,2.13,1,5.07,2.55,8.79,4.76,10a3.08,3.08,0,0,0,.51.21,3,3,0,0,0,1.1.21s15.17,1.83,23.94,20.27C166.88,203.14,169.39,213.4,169.39,227.47Z"/><path class="cls-5" d="M132.62,162.74v0A15.84,15.84,0,0,1,119,170.18h0c-7.84,0-12.38-5.72-13.55-7.38,0.27-1.64.51-3.4,0.69-5.23,0.09-1.1.19-2.2,0.3-3.34a53.39,53.39,0,0,0,12.39,1.62H119a50.51,50.51,0,0,0,12.65-1.76c0.09,1.1.21,2.21,0.31,3.27C132.14,159.26,132.35,161,132.62,162.74Z"/><path class="cls-6" d="M118.93,40.43c-51.18-.09-51.48,41.13-49.2,68-3.51-6.3-13.9-4-13,6.13,0.82,9.67,15.49,14.06,15.28,13,4.19,21.89,28.31,34,47,35.78,0.13,0,.27,0,0.4,0V40.44h-0.4Z"/><path class="cls-7" d="M59.25,110.3a5.05,5.05,0,0,1,7.5-1.36A4,4,0,0,1,68,113.42c-0.36,1.3-1.79,1.4-1.44,3.37,0.38,2.22,1.47,2.36,2.07,2.87a3.94,3.94,0,0,1,2,4.61c-0.4,1.6-2.84.33-4.49-.38a30.64,30.64,0,0,1-5.36-4.16C58.55,117.4,57.54,112.9,59.25,110.3Z"/><path class="cls-8" d="M119.18,40.43c51.18-.09,51.48,41.13,49.21,68,3.51-6.3,13.89-4,13,6.13-0.81,9.67-15.49,14.06-15.28,13-4.19,21.89-28.31,34-47,35.78-0.12,0-.27,0-0.38,0V40.44h0.38Z"/><path class="cls-7" d="M179.22,110.3a5.05,5.05,0,0,0-7.5-1.36,3.94,3.94,0,0,0-1.21,4.48c0.35,1.3,1.79,1.4,1.45,3.37-0.38,2.22-1.46,2.36-2.08,2.87a4.69,4.69,0,0,0-1.75,1.82,4.78,4.78,0,0,0-.22,2.79c0.39,1.6,2.84.33,4.47-.38a30.54,30.54,0,0,0,5.37-4.16C179.93,117.4,180.93,112.9,179.22,110.3Z"/><path class="cls-3" d="M118.66,52.1c-17.09,0-29.6,4.73-37.18,14.05-10.57,13-10.17,32.91-6.26,47.19,1.18,4.37,1.8,16.13,2.63,20.45,3.68,19.31,26.07,29.59,40.81,29.59h0.4V52.12Z"/><path class="cls-4" d="M155.76,66.17c-7.51-9.26-19.88-14-36.7-14.05V163.36c16.83-.18,37-11.44,40.42-29.58,0.82-4.32,1.43-16.08,2.62-20.45C166,99.1,166.37,79.23,155.76,66.17Z"/><path class="cls-9" d="M127.66,145.93s-3.86,4.13-8.63,4.13-8.4-4.05-8.4-4.05a54.74,54.74,0,0,1,8.4-.63A68.72,68.72,0,0,1,127.66,145.93Z"/><path class="cls-10" d="M121.49,144a2.25,2.25,0,0,0-2.45,1.88A2.23,2.23,0,0,0,116.6,144c-1.35,0-6.19,1.92-6.19,1.92s4.72,0.49,6.07.49S119,147,119,146c0,1,1,.62,2.33.62s6.29-.64,6.29-0.64S122.83,144,121.49,144Z"/><path class="cls-11" d="M174.49,68.72c-0.68-2.13-1.37-4.1-2.08-6V61.91c0-8-6.52-18.41-16.88-28.5s-16.9-8-25.5-7.73l-0.07.16c-3.77-.88-24-5.24-36.12-0.41C80.52,30.78,69.6,40,61.9,64.61S60.52,109.44,62,118c4.73,27.28,27.44,44.55,27.44,44.55s-5.74-7.29-8.29-14.55a85.42,85.42,0,0,1-5-29.57c0-14.25,13-31.91,13-31.91s-6,11.07-7.15,23.25a36.2,36.2,0,0,0,5.07,21.59s-7.93-15.81,4.75-27.62A91.08,91.08,0,0,0,102,92.55v0c-3.18,9.33,3.21,17.17,3.21,17.17s-0.12-12,6.5-16c16.12-9.9,18.68-14,21-22a20.39,20.39,0,0,0,.6-3.06L148,91.72c0.69,1,1.82,2.71,3.13,4.9,3.82,6.39,9.1,16.86,9.1,26a85.26,85.26,0,0,1-5,29.56c-2.56,7.27-8.29,14.55-8.29,14.55s22.72-17.27,27.44-44.55C175.87,113.55,182.2,93.36,174.49,68.72Z"/><path class="cls-12" d="M157,180.66c-6.61-3.17-14.44-5.17-14-4.22,4.28,6,2.68,11.08,2,19.73-1.09,13.45-9.82,10.17-26,10-16.22.16-24.95,3.44-26-10-0.71-8.65-2.3-13.71,2-19.73,0.42-.94-7.4,1.05-14,4.22a69.1,69.1,0,0,0-12,7.49,12.19,12.19,0,0,1,7,7.74c1,3,1.66,8.54,2,13.64,0.72,10.35,5.89,15,5.6,18.47h71c-0.31-3.48,4.88-8.12,5.6-18.47,0.35-5.1,1-10.6,2-13.64a12.18,12.18,0,0,1,7-7.74A69.3,69.3,0,0,0,157,180.66Z"/><path class="cls-13" d="M111.76,176.39c0.76,11.68-4.32,24.92-5.46,28.72-1.52,5.1-5.58,11-5.58,11s4.38,0.4,5,.37,6.38,1.46,7.83-2.92,7-32.74,6.54-33.47-1.8-3.66-1.8-3.66h-6.56Z"/><path class="cls-14" d="M104.07,166.21c3.17,1.09,9.23,3.24,15.18,3a125.34,125.34,0,0,0,15.48-2.18s4.32,5.06.69,7.12-26.51,5.18-33.81-.37C100.44,172.92,104.07,166.21,104.07,166.21Z"/><path class="cls-14" d="M114.74,168.95c0.59-.4,3.11,0,5,0s2.57-.56,4.15,0,2.55,5,2.55,5.68,0,2.18-.73,2.26,0,4.23.12,6c2,31.63-2.66,39.58-3.64,40.16s-17.37,1-17.37,1,4.47-10.05,6.19-15.57c4.62-14.8,5.2-30.86,5.2-30.86s-1.91.6-1.91-1.1S113.17,170,114.74,168.95Z"/></svg>