<svg id="Layer_1" data-name="Layer 1" xmlns="http://www.w3.org/2000/svg" viewBox="0 0 227.05 228.47"><defs><style>.cls-1{fill:#5dc2ee;}.cls-2{fill:#e6c5a1;}.cls-3{fill:#f5d7b3;}.cls-4,.cls-6{fill:#c89f81;}.cls-4{opacity:0.7;}.cls-5{fill:#d8ad8b;}.cls-7{fill:#e4bea0;}.cls-8{fill:#644e53;}.cls-9{fill:#191714;}.cls-10{fill:#f9f4de;}.cls-11{fill:#12100b;}</style></defs><title>1-81</title><rect class="cls-1" width="227.05" height="228.47"/><path class="cls-2" d="M115.56,144.37v84.06H70l-1.12-.48c0-45.09,27.93-48.46,27.93-48.46,2.08,0,3.58-2,4.73-5.22a30.65,30.65,0,0,0,1-3.81c0.19-.83.35-1.7,0.48-2.62,0.26-1.55.48-3.18,0.64-4.87,0.09-1,.19-2.05.28-3.11,0.41-5.16.55-10.77,0.55-16.09C104.46,143.76,110.6,144.37,115.56,144.37Z"/><path class="cls-3" d="M162.44,227.95s-0.42.15-1.09,0.48H115.56V144.37h0.09c5,0,11.13-.61,11.13-0.61,0,5.29.13,10.83,0.55,16,0.09,1,.19,2,0.29,3,0.19,1.76.38,3.43,0.63,5v0c0.1,0.7.23,1.35,0.36,2a23.07,23.07,0,0,0,2.25,6.83c1,1.83,2.17,2.88,3.67,2.88C134.52,179.49,162.44,182.86,162.44,227.95Z"/><path class="cls-4" d="M128.25,167.76v0a14.75,14.75,0,0,1-12.63,6.89h-0.06c-7.26,0-11.48-5.33-12.57-6.86,0.26-1.54.48-3.18,0.65-4.88,0.09-1,.18-2,0.28-3.1a50.43,50.43,0,0,0,11.51,1.5h0.13a47,47,0,0,0,11.76-1.63c0.09,1,.2,2.06.29,3.05C127.81,164.53,128,166.2,128.25,167.76Z"/><path class="cls-5" d="M115.7,48c-48.31,0-48.59,40.52-46.44,67C66,108.72,56.15,110.66,57,120.57c0.77,9.53,14.61,14.46,14.43,13.36,4,21.83,26.69,34.44,44.32,34.44l0.36,0V48H115.7Z"/><path class="cls-6" d="M60,116.38A4.57,4.57,0,0,1,67,115a4,4,0,0,1,1.12,4.4c-0.33,1.26-1.67,1.37-1.34,3.3a3.43,3.43,0,0,0,1.93,2.81,4.49,4.49,0,0,1,1.63,1.79,4.71,4.71,0,0,1,.22,2.73c-0.37,1.56-2.64.32-4.17-.38a28.48,28.48,0,0,1-5-4.06C59.38,123.33,58.44,118.92,60,116.38Z"/><path class="cls-7" d="M115.93,48c48.31,0,48.59,40.52,46.43,67,3.31-6.29,13.12-4.34,12.31,5.56C173.9,130.1,160,135,160.25,133.92c-4,21.83-26.7,34.44-44.32,34.44l-0.37,0V48h0.37Z"/><path class="cls-6" d="M171.59,116.38a4.56,4.56,0,0,0-7-1.34,4,4,0,0,0-1.13,4.4c0.33,1.26,1.68,1.37,1.35,3.3a3.41,3.41,0,0,1-1.94,2.81,4.45,4.45,0,0,0-1.62,1.79,4.83,4.83,0,0,0-.22,2.73c0.37,1.56,2.64.32,4.17-.38a28.53,28.53,0,0,0,5-4.06C172.24,123.33,173.18,118.92,171.59,116.38Z"/><path class="cls-2" d="M115.27,59.39C99.38,59.39,87.75,64,80.7,73.15c-9.82,12.75-9.45,32.22-5.83,46.21,1.11,4.27,1.68,15.79,2.44,20,3.44,18.9,24.25,29,38,29l0.37,0V59.4h-0.37Z"/><path class="cls-3" d="M149.77,73.16c-7-9.07-18.49-13.69-34.13-13.76V168.34c15.65-.16,34.37-11.2,37.59-29,0.75-4.23,1.32-15.75,2.43-20C159.28,105.41,159.64,86,149.77,73.16Z"/><path class="cls-8" d="M162.44,227.94s-0.42.16-1.09,0.48H70l-1.12-.48c0-45.36,27.93-48.74,27.93-48.74,2.08,0,3.58-2,4.73-5.25l14.08,1.12,15.29,1.23c1,1.84,2.17,2.9,3.67,2.9C134.52,179.2,162.44,182.58,162.44,227.94Z"/><path class="cls-9" d="M132,177.41s-1.79-7.71-3.1-7.71-14,5.91-14,5.91l4,8.49Z"/><path class="cls-9" d="M98.15,177.41s1.79-7.71,3.1-7.71,14,5.91,14,5.91l-4,8.49Z"/><path class="cls-10" d="M126.48,148.08a4.05,4.05,0,0,0-2.1.6c2.56,1.51,4.41,5.7,4.41,10.64a17.34,17.34,0,0,1-1.1,6.2l-0.44.23c-1.33-2.87-6.53-5-12.75-5S103,162.9,101.73,165.8l-0.4-.2a17.41,17.41,0,0,1-1.13-6.28c0-4.94,1.86-9.13,4.42-10.64a4.08,4.08,0,0,0-2.1-.6c-3.59,0-6.49,5-6.49,11.24a15.86,15.86,0,0,0,2.11,8.28c1.38,2.59,5.55,4.67,11,5.51a24.39,24.39,0,0,0,5.39.59,24.81,24.81,0,0,0,5.73-.66,20.28,20.28,0,0,0,8.42-3.14c2.53-1.54,4.33-5.69,4.33-10.58C133,153.11,130.07,148.08,126.48,148.08Z"/><path class="cls-10" d="M154.44,51.23c-11.4-8-28.54-16.46-38.91-15.43C90,33.27,82.47,45.28,76.59,49.43c-18.6,13.14-12.35,60.2-12.35,60.2s3-.68,4.74,1a15.28,15.28,0,0,1,4.41,7.71,6.48,6.48,0,0,0,3.32,4s-4.45-18.73.12-27.06c2.13-3.89,4.06-8.07,8.54-12.21a21.6,21.6,0,0,0,1.75,8.32c2.87,7,14.64,11.23,14.64,11.23S93.1,97.81,96.53,92c2.07-3.54,14.1-6.76,21.18-7.31,10.28-.8,15.06-4.4,17-8A22,22,0,0,1,140.41,79c8.51,5.43,11,11.07,13.8,16.22,4.58,8.33.12,27.06,0.12,27.06a6.48,6.48,0,0,0,3.32-4,15.29,15.29,0,0,1,4.41-7.71c1.73-1.66,4.73-1,4.73-1S173.05,64.37,154.44,51.23Z"/><path class="cls-11" d="M157.78,193.17a35,35,0,0,0-16-12.4l-26.11,39.72-0.28.43-0.29-.43L89,180.77a35,35,0,0,0-16,12.4,18.45,18.45,0,0,1,4.16,7.61c3.3,10.64,1.41,23.62.73,27.47h75c-0.68-3.85-2.58-16.83.73-27.47A18.5,18.5,0,0,1,157.78,193.17Z"/></svg>