<svg id="Layer_1" data-name="Layer 1" xmlns="http://www.w3.org/2000/svg" viewBox="0 0 227.05 228.47"><defs><style>.cls-1{fill:#9065a7;}.cls-2{fill:#e6c5a1;}.cls-3{fill:#f5d7b3;}.cls-4,.cls-6{fill:#c89f81;}.cls-4{opacity:0.7;}.cls-5{fill:#d8ad8b;}.cls-7{fill:#e4bea0;}.cls-8{fill:#ca666c;}.cls-9{fill:#d96f71;}.cls-10{fill:#a01a1b;}.cls-11{fill:#9d5256;}.cls-12{fill:#fcfcfc;}</style></defs><title>1-81</title><rect class="cls-1" width="227.05" height="228.47"/><path class="cls-2" d="M117.85,143v85.2H71.64a12.33,12.33,0,0,0-1.14-.49c0-10.68,1.52-19,3.92-25.59C79.87,187,89.66,181.43,95,179.52a19.75,19.75,0,0,1,3.76-1H99a3.93,3.93,0,0,0,.62-0.13c1.55-.42,2.78-2.11,3.76-4.67a31.1,31.1,0,0,0,1.23-4.33c0.18-.87.35-1.76,0.49-2.66,0.25-1.58.48-3.21,0.64-5,0.11-1,.2-2.06.3-3.13,0.42-5.26.55-10.94,0.55-16.31C106.61,142.33,112.82,143,117.85,143Z"/><path class="cls-3" d="M165.36,227.66a8,8,0,0,0-1.11.49H117.85V143H118c5,0,11.28-.62,11.28-0.62,0,5.33.13,10.94,0.55,16.15,0.1,1,.2,2.08.28,3.11,0.2,1.76.4,3.47,0.66,5v0.06c0.11,0.68.23,1.36,0.36,2a31.26,31.26,0,0,0,1.65,5.76h0a7.21,7.21,0,0,0,2.79,3.7,2.83,2.83,0,0,0,1.52.39,16.29,16.29,0,0,1,2.27.49c5.13,1.52,17.61,7.06,23.21,26.37a71.64,71.64,0,0,1,2.68,17.31C165.33,224.28,165.36,225.94,165.36,227.66Z"/><path class="cls-4" d="M130.69,166.66v0a14.89,14.89,0,0,1-12.79,7h-0.06c-7.37,0-11.65-5.39-12.74-6.95,0.25-1.57.48-3.22,0.65-4.93,0.09-1,.19-2.08.28-3.15a50.16,50.16,0,0,0,11.67,1.52h0.14a47.06,47.06,0,0,0,11.93-1.66c0.09,1,.19,2.09.28,3.09C130.24,163.37,130.44,165.06,130.69,166.66Z"/><path class="cls-5" d="M117.8,51.39c-48.24-.1-48.52,38.75-46.37,64.08-3.32-5.94-13.1-3.74-12.29,5.77,0.76,9.12,14.59,13.25,14.4,12.25,4,20.63,26.68,32.09,44.26,33.73h0.37V51.4H117.8Z"/><path class="cls-6" d="M61.56,117.23a4.77,4.77,0,0,1,7.07-1.28,3.72,3.72,0,0,1,1.14,4.23c-0.34,1.22-1.7,1.31-1.35,3.18,0.35,2.09,1.38,2.23,1.94,2.71A4.29,4.29,0,0,1,72,127.77a4.36,4.36,0,0,1,.22,2.62c-0.37,1.52-2.68.31-4.22-.35A28.78,28.78,0,0,1,63,126.12C60.89,123.93,60,119.68,61.56,117.23Z"/><path class="cls-7" d="M118,51.39c48.23-.1,48.51,38.75,46.37,64.08,3.3-5.94,13.09-3.74,12.28,5.77-0.77,9.12-14.59,13.25-14.4,12.25-3.95,20.63-26.68,32.09-44.26,33.73h-0.37V51.4H118Z"/><path class="cls-6" d="M174.61,117.23a4.77,4.77,0,0,0-7.07-1.28,3.74,3.74,0,0,0-1.14,4.23c0.34,1.22,1.7,1.31,1.37,3.18a3.32,3.32,0,0,1-2,2.71,3.73,3.73,0,0,0-1.86,4.34c0.38,1.52,2.68.31,4.22-.35a28.44,28.44,0,0,0,5.06-3.93C175.28,123.93,176.23,119.68,174.61,117.23Z"/><path class="cls-2" d="M117.55,62.39c-16.11,0-27.9,4.45-35,13.23-10,12.27-9.58,31-5.9,44.47,1.11,4.12,1.7,15.2,2.47,19.27,3.47,18.19,24.57,27.89,38.47,27.89l0.37,0V62.4h-0.37Z"/><path class="cls-3" d="M152.5,75.64c-7.09-8.72-18.74-13.17-34.58-13.25V167.24c15.86-.16,34.82-10.78,38.08-27.87,0.77-4.08,1.36-15.15,2.48-19.27C162.15,106.67,162.51,88,152.5,75.64Z"/><path class="cls-8" d="M126,150.8s-3.64,3.9-8.13,3.9-7.92-3.82-7.92-3.82a52.38,52.38,0,0,1,7.92-.59A66.1,66.1,0,0,1,126,150.8Z"/><path class="cls-9" d="M120.2,149a2.12,2.12,0,0,0-2.31,1.77,2.11,2.11,0,0,0-2.3-1.77c-1.27,0-5.83,1.81-5.83,1.81s4.44,0.47,5.71.47,2.39,0.5,2.41-.44c0,1,.95.59,2.2,0.59s5.92-.62,5.92-0.62S121.47,149,120.2,149Z"/><path class="cls-10" d="M154,205.87c-6.62-11.31-11.25-19.3-13.3-26.34a19.58,19.58,0,0,0-3.76-1h-0.22a4.28,4.28,0,0,1-.62-0.13c-1.55-.42-2.78-2.11-3.76-4.67a16.31,16.31,0,0,1-3.22,1.19c-4.11,1.18-11,2.92-11,2.92a165.88,165.88,0,0,1,6.71,16.73c2.72,8-1.62,13.93-6.9,14.16-5.28-.23-9.62-6.21-6.9-14.16a165.88,165.88,0,0,1,6.71-16.73s-6.93-1.74-11.05-2.92a16.42,16.42,0,0,1-3.21-1.19c-1,2.56-2.2,4.25-3.76,4.67a3.93,3.93,0,0,1-.62.13H98.79a19.75,19.75,0,0,0-3.76,1c-2,7-6.67,15-13.28,26.34-3.66,6.26-1.12,17.53,1,22.28H153C155.08,223.8,157.62,212.13,154,205.87Z"/><path class="cls-11" d="M181.39,87.34s-5.5-1.38-8.88-9.13-2.16-10.76-3.43-15.45a20,20,0,0,0-6-9.61l0.36,0.19c9.09,4.78,9.52,9,9.53,9.53A18.77,18.77,0,0,0,164.59,48a44.12,44.12,0,0,0-7.21-3.62,33.12,33.12,0,0,0,19.71-5.7s-13.2,5.27-26.58,0c-7.83-3.08-16.95-8.55-21.81-8.55a36.45,36.45,0,0,0-16.14,4c-4.07,2.16-8.05,5.52-9.73,5.52s-1.27.6-8.88,2-11.07,1-20.77,10.72-9.65,35.13-9.65,35.13A17.7,17.7,0,0,1,67,78a43.63,43.63,0,0,0,2.62-3.7c-1,1.9-4.78,10-4.6,18.63,0.38,17.5-3.83,19.88-3.83,19.88s2.56-.4,6.17-4.25a18.41,18.41,0,0,0-.36,5.6c3,18.56-3.27,24.84-3.27,24.84a28.35,28.35,0,0,0,12.52-19c0.08,1.44.2,3.05,0.38,4.88,0.89,9.06-5.8,15.86-5.8,15.86s8.08-3,11.44-9.33a64.91,64.91,0,0,1,.24,7.4c-0.19,5.94-2.68,7.5-2.68,7.5,3.54-2,5.64-6,7-11.73a82,82,0,0,0,1.6-10c0.1-1,.2-2,0.29-3l0.15-.18-0.11-.24c0-.36.06-0.69,0.09-1.05,0.4-4.7.51-11.69,0.51-18.85,0-2.62,0-5.27-.05-7.83,0.73,1.79,1.49,3.54,2.22,5.25a32.55,32.55,0,0,1,1.88,7.53s4.35-7,2.07-17.83c-0.45-2.1-.79-4-1.06-5.82a14.9,14.9,0,0,0,10.67,8.33s-3.36-2.78-3.57-9.72a18.33,18.33,0,0,1,2.16-9.22,45.22,45.22,0,0,0,1.88,6.83c2.58,7.21,8.63,12.09,12.67,14.68l0.06,0,0.34,0.23a32.23,32.23,0,0,0,3.52,1.93,21.64,21.64,0,0,1-3.52-3.81l-0.34-.49,0-.06A23.07,23.07,0,0,1,114,77.12c0-.25,0-0.5,0-0.73a18,18,0,0,0,1.84,4.13c0.93,1.43,1.69,2.55,2.38,3.47l0.06,0.09,0.34,0.45c1.78,2.24,3.25,3.21,6.41,4.9a35.9,35.9,0,0,0,14.57,4s-6.48-1.94-10.07-10.19c-0.69-1.59-1.42-3.21-2.14-4.78A27.26,27.26,0,0,0,135,84.58c7.37,4.14,11.84,11.24,15,19.47,0.12,0.35.25,0.7,0.37,1a104.55,104.55,0,0,1,3.13,10.65c0,0.07,0,.15.06,0.22,2.62,11.14-2.81,21.32-4.28,23.81a0.78,0.78,0,0,0,0,.12c0.7,4.93,2.07,8.58,4.53,10.69-0.39-.45-1.85-2.52-1.5-7.89,0.16-2.42.51-5.05,0.93-7.68,2.28,6.83,8.93,10.63,8.93,10.63s-5.09-7.6-3.45-16.91c0.34-1.9.59-3.55,0.8-5.05a35.27,35.27,0,0,0,1.52,8.61,28.82,28.82,0,0,0,7.41,12.12s-4.79-7-.4-26a22.91,22.91,0,0,0,.22-5.83,19.88,19.88,0,0,0,1.7,2.31,18.76,18.76,0,0,1-1.37,5.06,27.28,27.28,0,0,0,2.6-3.77,6,6,0,0,0,2,1.32,5.64,5.64,0,0,1-1.23-2.72,29,29,0,0,0,2.4-19.37,65.42,65.42,0,0,0-2.69-8.94l-0.06-.54A31.35,31.35,0,0,0,181.39,87.34Z"/><path class="cls-12" d="M97.29,38.41c-2-.4-9.81,7.74-13.09,12.85a3.88,3.88,0,0,0-2.67-.08,3.81,3.81,0,0,0-2.07,1.67c-5.69-2.11-16.8-3.92-18.19-2.38-1.81,2.07,3.49,10.42,3.49,10.42s0.79,9.87,3.47,10.42c2,0.41,9.82-7.74,13.09-12.85a3.8,3.8,0,0,0,4.75-1.58c5.69,2.1,16.79,3.92,18.17,2.37,1.82-2.06-3.47-10.42-3.47-10.42S100,39,97.29,38.41Z"/></svg>