<svg id="Layer_1" data-name="Layer 1" xmlns="http://www.w3.org/2000/svg" viewBox="0 0 227.05 228.47"><defs><style>.cls-1{fill:#9d5256;}.cls-2{fill:#5b1911;}.cls-3{fill:#e6c5a1;}.cls-4{fill:#f5d7b3;}.cls-5,.cls-7{fill:#c89f81;}.cls-5{opacity:0.7;}.cls-6{fill:#d8ad8b;}.cls-8{fill:#e4bea0;}.cls-9{fill:#fff8f6;}.cls-10{fill:#ba4766;}.cls-11{fill:#fff;}</style></defs><title>1-81</title><rect class="cls-1" width="227.05" height="228.47"/><path class="cls-2" d="M90.85,136.16C90,135.5,74,125.65,74,125.65c1.09,6.14,1.91,8.64.31,12.81-1.45,3.75-4.21,5.2-5.73,6.5a12,12,0,0,1-5.71,2.31,16.76,16.76,0,0,1-2.34-.2s2.54,1.41,8.88,1.13a9.92,9.92,0,0,0,5.46-1.56c-1.25,2-2.43,5-1.11,7.65,4.8,9.81-1.6,13-1.6,13s5.67-.57,8.92-3.43c0,0.07,0,.16,0,0.22,1.44,4.92,5.24,5.47,5.24,5.47s-2.39-.4-1.94-5c0.13-1.21,1.39-1.69,2.95-2.51,0.62,4.4,2.6,8.9-1.5,10.73,0,0,6.93-1.38,8.19-5.51a16.54,16.54,0,0,0,.47-2.16c0.1,0.39.25,0.74,0.33,1.15,1,5.26-3,10.36-3,10.36s14.39-1.54,14.49-7.25a29.44,29.44,0,0,1,.63-5.68c0.43-1.31,1.32-7.87,1.32-7.87S91.72,136.81,90.85,136.16Z"/><path class="cls-2" d="M150.4,136.16c0.88-.66,16.82-10.51,16.82-10.51-1.09,6.14-1.91,8.64-.31,12.81,1.45,3.75,4.2,5.2,5.73,6.5a12,12,0,0,0,5.71,2.31,16.93,16.93,0,0,0,2.34-.2s-2.54,1.41-8.89,1.13a10,10,0,0,1-5.46-1.56c1.26,2,2.43,5,1.11,7.65-4.8,9.81,1.61,13,1.61,13s-5.67-.57-8.93-3.43a1.23,1.23,0,0,1,0,.22c-1.45,4.92-5.24,5.47-5.24,5.47s2.4-.4,1.94-5c-0.12-1.21-1.38-1.69-2.95-2.51-0.61,4.4-2.59,8.9,1.51,10.73,0,0-6.93-1.38-8.2-5.51a18,18,0,0,1-.46-2.16,11.14,11.14,0,0,0-.34,1.15c-1,5.26,3,10.36,3,10.36s-14.38-1.54-14.49-7.25a29.44,29.44,0,0,0-.63-5.68c-0.44-1.31-1.32-7.87-1.32-7.87S149.53,136.81,150.4,136.16Z"/><path class="cls-3" d="M120.61,144.36v84.06H75l-1.12-.48c0-45.09,27.92-48.45,27.92-48.45,2.78,0,4.57-3.59,5.75-9,0.19-.83.35-1.7,0.49-2.63,0.25-1.54.48-3.18,0.64-4.87,0.1-1,.19-2.06.28-3.11,0.42-5.15.55-10.76,0.55-16.08C109.51,143.75,115.65,144.36,120.61,144.36Z"/><path class="cls-4" d="M167.49,227.94s-0.41.16-1.08,0.48H120.61V144.36h0.09c5,0,11.13-.6,11.13-0.6,0,5.29.13,10.83,0.55,16,0.09,1,.2,2,0.28,3,0.2,1.76.39,3.43,0.65,5v0c0.09,0.71.22,1.35,0.35,2,1.18,5.8,3,9.71,5.91,9.71C139.57,179.48,167.49,182.84,167.49,227.94Z"/><path class="cls-5" d="M133.31,167.75v0a14.73,14.73,0,0,1-12.63,6.89h-0.06c-7.26,0-11.49-5.32-12.57-6.86,0.25-1.54.48-3.18,0.64-4.87,0.1-1,.19-2.06.28-3.11a49.5,49.5,0,0,0,11.52,1.51h0.13a46.81,46.81,0,0,0,11.77-1.63c0.09,1,.2,2,0.28,3C132.86,164.52,133.06,166.18,133.31,167.75Z"/><path class="cls-6" d="M120.75,47.95c-48.31,0-48.59,40.52-46.43,67C71,108.71,61.2,110.65,62,120.54c0.78,9.55,14.62,14.48,14.43,13.37,4,21.83,26.69,34.43,44.32,34.43l0.37,0V48h-0.37Z"/><path class="cls-7" d="M65.09,116.36a4.55,4.55,0,0,1,7-1.33,4,4,0,0,1,1.14,4.39c-0.34,1.26-1.68,1.36-1.35,3.3a3.41,3.41,0,0,0,1.93,2.81,4.49,4.49,0,0,1,1.63,1.78,4.8,4.8,0,0,1,.21,2.74c-0.36,1.57-2.63.32-4.16-.37a29,29,0,0,1-5-4.07C64.43,123.32,63.5,118.91,65.09,116.36Z"/><path class="cls-8" d="M121,47.95c48.31,0,48.58,40.52,46.44,67,3.3-6.28,13.11-4.34,12.31,5.55C179,130.1,165.09,135,165.29,133.91c-4,21.83-26.69,34.43-44.31,34.43l-0.37,0V48H121Z"/><path class="cls-7" d="M176.63,116.36a4.55,4.55,0,0,0-7-1.33,4,4,0,0,0-1.13,4.39c0.34,1.26,1.67,1.36,1.35,3.3a3.39,3.39,0,0,1-1.94,2.81,4.47,4.47,0,0,0-1.62,1.78,4.85,4.85,0,0,0-.22,2.74c0.37,1.57,2.65.32,4.17-.37a28.86,28.86,0,0,0,5-4.07C177.29,123.32,178.24,118.91,176.63,116.36Z"/><path class="cls-3" d="M120.33,59.38c-15.9,0-27.53,4.62-34.58,13.76-9.83,12.74-9.46,32.23-5.82,46.2,1.11,4.28,1.68,15.79,2.44,20,3.43,18.91,24.24,29,38,29l0.37,0V59.38h-0.37Z"/><path class="cls-4" d="M154.82,73.16c-7-9.07-18.49-13.7-34.13-13.77V168.32c15.65-.17,34.36-11.2,37.58-29,0.77-4.23,1.33-15.75,2.45-20C164.33,105.4,164.69,85.95,154.82,73.16Z"/><path class="cls-2" d="M173.52,87.36a12.38,12.38,0,0,0-1-2c-0.93-6.91-5.8-20.75-10.59-27.69-5-7.22-17.17-13.61-32.83-15.52s-29.32,9.2-29.32,9.2-2.42-3.62-4.5-4.68-8,.2-8,0.2,4,1.13,4.83,2.2A4.35,4.35,0,0,1,92.87,53s-4.72-2-6.79-2.1C82.28,50.8,78,55.62,78,55.62s3.55-2.51,7-2.42a18.75,18.75,0,0,1,4.2,1.51S83.56,55.3,73,66.85c-7.95,8.7-7.95,20.21-7.95,20.21l6.65-3.82a17.37,17.37,0,0,0-2.56,4.13C64.28,99.58,71,111.84,71,111.84s2.19,0.22,4.19,4.93A93.57,93.57,0,0,1,79.58,131h2.34s-5-19.68-1.65-30.39c0.94-3,3.47-9,7-9.21a12.77,12.77,0,0,0,3.36-6.09c1-4.06,6.43-10.82,9.33-12.1a3.88,3.88,0,0,1,4.56.64s4.57-3.61,12.87-5.09,12.86,7.43,14.68,12.11,0.87,7,.87,7,3.53-5.74,3.12-11.48a14.55,14.55,0,0,0-1-4.37c1.08,0.55,5.81,1.87,6.76,14.15C142.35,92,137.11,96,137.11,96s11.65-4.84,9.25-19.77c2.49,2.68,5,6.47,5.72,9.13,1,4,9.77,13.44,10.36,15.3,3.39,10.71-1.64,30.39-1.64,30.39h2.34a92.21,92.21,0,0,1,4.4-14.27c2-4.7,4.19-4.93,4.19-4.93S178.43,99.58,173.52,87.36ZM133.95,69.87c-0.06-.08-0.11-0.17-0.17-0.24L134,69.82Z"/><path class="cls-9" d="M167.86,227.95s-0.38.15-1.12,0.47H75l-1.14-.47c0-1.35,0-2.7.06-4,0.13-2.95.38-5.75,0.73-8.3a56.59,56.59,0,0,1,1.12-6.13c0.16-.86.39-1.7,0.61-2.53,0.32-1.13.65-2.21,1-3.27,0.28-.86.6-1.7,0.93-2.5a43.1,43.1,0,0,1,3.1-6.31,34.6,34.6,0,0,1,6.72-8.3,30.79,30.79,0,0,1,5.66-4.13,0.43,0.43,0,0,0,.12-0.06l0.07,0a23.08,23.08,0,0,0,3.74,4.23c2.17,2.15,5.3,5,9.3,8.3,0.26,0.19.55,0.46,0.83,0.68,8.29,6.72,17.75,6.72,26,0,0.29-.22.57-0.49,0.83-0.68,4-3.33,7.17-6.15,9.34-8.3a24.47,24.47,0,0,0,3.74-4.23l0,0,0.13,0.06a29.81,29.81,0,0,1,5.69,4.13,35.45,35.45,0,0,1,6.72,8.3,41,41,0,0,1,3.07,6.31c0.32,0.81.64,1.64,0.92,2.5,0.38,1.06.71,2.14,1,3.27,0.22,0.83.41,1.67,0.61,2.53,0.45,1.93.8,3.94,1.08,6.13,0.35,2.56.61,5.36,0.74,8.3C167.83,225.25,167.86,226.6,167.86,227.95Z"/><path class="cls-10" d="M97.74,186.64c2.17,2.15,5.3,5,9.3,8.3H81.42a34.6,34.6,0,0,1,6.72-8.3h9.59Z"/><path class="cls-10" d="M160.35,194.93H134.7c4-3.33,7.17-6.15,9.34-8.3h9.59A35.45,35.45,0,0,1,160.35,194.93Z"/><path class="cls-10" d="M120.12,205.62a9.87,9.87,0,0,0,0,19.75,9.72,9.72,0,0,0,2.28-.27h0A9.88,9.88,0,0,0,120.12,205.62Z"/><path class="cls-11" d="M124.43,215.5a4.86,4.86,0,0,0-4-3.75H120a1.06,1.06,0,0,0-1.14.9v0.06a5.21,5.21,0,0,1,1.73.52h0l0.31,0.14a5.15,5.15,0,0,1,2.25,2.26,6.53,6.53,0,0,0-2.78-2.1,5.36,5.36,0,0,0-.9-0.29,3.24,3.24,0,0,0-.37-0.08h0c-0.44-.15-0.44.25-0.47,0.56s-0.06.41-.27,0.35a0.43,0.43,0,0,0-.43.28l-1.27,1.82a2,2,0,0,0-.24.4c-1,.57-0.46.91-0.42,0.94h0a0.35,0.35,0,0,0,.21,0,1.55,1.55,0,0,1,.16.33,0.74,0.74,0,0,1,0,.16l0,0a1.32,1.32,0,0,0,0,1h0l0,0,0,0,0,0a0.38,0.38,0,0,0,.11.07,0.36,0.36,0,0,0,.15,0,0.52,0.52,0,0,0,.33-0.16h0a1.26,1.26,0,0,0,0-1v0a0.49,0.49,0,0,1,.27-0.6,0.14,0.14,0,0,1,.18,0,0.24,0.24,0,0,1,.07.24h0a0.6,0.6,0,0,0,0,.46h0l0,0h0l0,0,0,0,0.07,0a0.24,0.24,0,0,0,.15-0.08h0a0.55,0.55,0,0,0,0-.46v0a0.25,0.25,0,0,1,.05-0.24h0l0,0h0l0,0H118a0.16,0.16,0,0,0,.11-0.05h0a0.26,0.26,0,0,0,0-.24,0.17,0.17,0,0,1,.06.18h0a0.47,0.47,0,0,0,0,.33h0v0l0,0h0.06a0.14,0.14,0,0,0,.1-0.06h0a0.37,0.37,0,0,0,0-.34h0a0.23,0.23,0,0,1,0-.15,0.15,0.15,0,0,1,.24,0,0.37,0.37,0,0,1,0,.14v0a0.54,0.54,0,0,0,0,.43h0l0,0h0v0l0,0,0.09,0a0.32,0.32,0,0,0,.14-0.07h0a0.52,0.52,0,0,0,0-.45v0a0.23,0.23,0,0,1,.12-0.27h0l0.61-.06c1.51-.12,2.61-0.24,3.38-0.35C124.55,216.42,124.43,215.58,124.43,215.5Zm-6.76,1.31a0.39,0.39,0,0,1-.49-0.08,0.4,0.4,0,0,1,.34-0.37,0.39,0.39,0,0,1,.49.08A0.39,0.39,0,0,1,117.67,216.81Zm1.78-3a0.39,0.39,0,1,1-.65.22A0.53,0.53,0,0,1,119.45,213.81Zm0.13,2.33a0.65,0.65,0,1,1,.76-0.85A0.87,0.87,0,0,1,119.58,216.14Zm2.13,0.38a0.53,0.53,0,0,1-.67-0.1,0.55,0.55,0,0,1,.46-0.52A0.39,0.39,0,1,1,121.71,216.52Z"/></svg>