<svg id="Layer_1" data-name="Layer 1" xmlns="http://www.w3.org/2000/svg" viewBox="0 0 227.05 228.47"><defs><style>.cls-1{fill:#e95c12;}.cls-2{fill:#fff8f6;}.cls-3{fill:#e6c5a1;}.cls-4{fill:#f5d7b3;}.cls-5,.cls-7{fill:#c89f81;}.cls-5{opacity:0.7;}.cls-6{fill:#d8ad8b;}.cls-8{fill:#e4bea0;}.cls-9{fill:#1b1916;}.cls-10{fill:#0f0f0f;}.cls-11{fill:#f7ae2b;}</style></defs><title>1-81</title><rect class="cls-1" width="227.05" height="228.47"/><path class="cls-2" d="M90,133.24c-0.93-.69-17.84-11.15-17.84-11.15,1.15,6.51,2,9.18.33,13.59-1.53,4-4.46,5.51-6.07,6.91A12.86,12.86,0,0,1,60.33,145a18.5,18.5,0,0,1-2.47-.21s2.7,1.48,9.43,1.19a10.63,10.63,0,0,0,5.79-1.66c-1.33,2.16-2.59,5.25-1.18,8.11,5.09,10.42-1.7,13.81-1.7,13.81s6-.6,9.46-3.65a1.58,1.58,0,0,0,0,.25c1.53,5.21,5.57,5.79,5.57,5.79s-2.55-.43-2.07-5.27c0.13-1.29,1.47-1.8,3.13-2.67,0.65,4.68,2.75,9.44-1.6,11.39,0,0,7.35-1.46,8.69-5.84a17.41,17.41,0,0,0,.49-2.29,10.75,10.75,0,0,1,.35,1.23c1,5.58-3.18,11-3.18,11s15.27-1.62,15.38-7.7a30.84,30.84,0,0,1,.67-6c0.46-1.39,1.39-8.36,1.39-8.36S90.92,133.94,90,133.24Z"/><path class="cls-2" d="M143.82,133.24c0.93-.69,17.85-11.15,17.85-11.15-1.16,6.51-2,9.18-.34,13.59,1.53,4,4.46,5.51,6.07,6.91a12.86,12.86,0,0,0,6.07,2.45,18.4,18.4,0,0,0,2.47-.21s-2.68,1.48-9.43,1.19a10.56,10.56,0,0,1-5.78-1.66c1.32,2.16,2.58,5.25,1.17,8.11-5.09,10.42,1.7,13.81,1.7,13.81s-6-.6-9.47-3.65a1.2,1.2,0,0,1,0,.25c-1.53,5.21-5.56,5.79-5.56,5.79s2.54-.43,2.06-5.27c-0.13-1.29-1.47-1.8-3.13-2.67-0.65,4.68-2.75,9.44,1.6,11.39,0,0-7.36-1.46-8.7-5.84a16.78,16.78,0,0,1-.5-2.29,9.94,9.94,0,0,0-.35,1.23c-1,5.58,3.18,11,3.18,11s-15.26-1.62-15.38-7.7a31.8,31.8,0,0,0-.66-6c-0.47-1.39-1.4-8.36-1.4-8.36S142.89,133.94,143.82,133.24Z"/><path class="cls-3" d="M115.54,143.72v84.82h-46l-1.14-.48c0-45.5,28.18-48.9,28.18-48.9a3.67,3.67,0,0,0,3-1.68,20,20,0,0,0,2.84-7.44c0.19-.84.36-1.71,0.48-2.65,0.26-1.55.49-3.21,0.65-4.91,0.1-1,.2-2.07.29-3.14,0.42-5.21.55-10.86,0.55-16.23C104.34,143.11,110.54,143.72,115.54,143.72Z"/><path class="cls-4" d="M162.84,228.06s-0.42.16-1.1,0.48h-46.2V143.72h0.09c5,0,11.24-.61,11.24-0.61,0,5.33.13,10.93,0.54,16.1,0.11,1,.19,2.07.29,3.07,0.19,1.78.4,3.46,0.65,5v0c0.1,0.72.22,1.36,0.35,2,0.93,4.62,2.33,8.09,4.29,9.31a3,3,0,0,0,1.68.49S162.84,182.57,162.84,228.06Z"/><path class="cls-5" d="M128.36,167.34v0a14.86,14.86,0,0,1-12.75,7h-0.06c-7.32,0-11.58-5.37-12.68-6.92,0.26-1.57.48-3.21,0.65-4.92,0.1-1,.19-2.07.28-3.14a50.23,50.23,0,0,0,11.62,1.53h0.13a47.36,47.36,0,0,0,11.88-1.65c0.09,1,.19,2.07.28,3.07C127.9,164.07,128.09,165.76,128.36,167.34Z"/><path class="cls-6" d="M115.67,46.44c-48.74,0-49,40.9-46.85,67.66-3.35-6.35-13.24-4.38-12.42,5.6,0.78,9.64,14.75,14.61,14.55,13.5,4,22,26.94,34.74,44.72,34.74l0.37,0V46.45h-0.37Z"/><path class="cls-7" d="M59.51,115.48a4.62,4.62,0,0,1,7.05-1.34,4,4,0,0,1,1.14,4.44c-0.34,1.29-1.69,1.39-1.36,3.33a3.45,3.45,0,0,0,2,2.84,4.6,4.6,0,0,1,1.65,1.79,4.87,4.87,0,0,1,.21,2.76c-0.37,1.58-2.66.33-4.2-.37a29,29,0,0,1-5-4.11C58.85,122.5,57.91,118.05,59.51,115.48Z"/><path class="cls-8" d="M115.92,46.44c48.75,0,49,40.9,46.86,67.66,3.34-6.35,13.24-4.38,12.42,5.6-0.78,9.64-14.76,14.61-14.56,13.5-4,22-26.93,34.74-44.71,34.74l-0.37,0V46.45h0.37Z"/><path class="cls-7" d="M172.08,115.48a4.6,4.6,0,0,0-7-1.34,4.06,4.06,0,0,0-1.15,4.44c0.35,1.29,1.69,1.39,1.36,3.33a3.44,3.44,0,0,1-1.94,2.84,4.43,4.43,0,0,0-1.64,1.79,4.84,4.84,0,0,0-.22,2.76c0.37,1.58,2.66.33,4.19-.37a29.34,29.34,0,0,0,5-4.11C172.74,122.5,173.69,118.05,172.08,115.48Z"/><path class="cls-3" d="M115.26,58c-16,0-27.78,4.67-34.89,13.89-9.92,12.86-9.55,32.52-5.88,46.63,1.11,4.32,1.69,15.93,2.47,20.2,3.46,19.08,24.46,29.24,38.3,29.24l0.37,0V58Z"/><path class="cls-4" d="M150.07,71.87C143,62.73,131.4,58.07,115.63,58V167.92c15.78-.17,34.67-11.31,37.92-29.22,0.76-4.27,1.34-15.89,2.46-20.2C159.66,104.42,160,84.78,150.07,71.87Z"/><path class="cls-9" d="M100.51,171.79s-2.5,7.14-2.08,6.77,4.3,5.76,17.11,5.76c0,0-.9-8.44-2.42-8.87S100.51,171.79,100.51,171.79Z"/><path class="cls-9" d="M130.56,171.79s2.51,7.14,2.08,6.77-4.3,5.76-17.11,5.76c0,0,.89-8.44,2.41-8.87S130.56,171.79,130.56,171.79Z"/><path class="cls-10" d="M162.84,228.06s-0.42.16-1.1,0.48H69.52l-1.14-.48c0-45.5,28.18-48.9,28.18-48.9a3.67,3.67,0,0,0,3-1.68,62.69,62.69,0,0,1,10.88-.94l4.52,7.76a1.53,1.53,0,0,0,.62-0.22c2.35-1.11,10.07-6,10.91-6,2.25,0.1,3.36-.33,5.46,0a9,9,0,0,0,2.76,1.1S162.84,182.57,162.84,228.06Z"/><path class="cls-2" d="M74.23,122.21c-0.92,0,.07-4.9-3-8.29s-7.74-14.77-7.74-26.14,4-21.49,14.43-32.25,25.75-16,25.75-16L96.62,46s3.79-5.24,17.45-9.43c10.77-3.3,17.75.37,17.75,0.37s-7.1-.25-9.26,2.86a11.3,11.3,0,0,1-2.53,2s3.3-7.42,18.63-1.27,15,17.16,25.71,20.54c10.92,3.47,14.08-1,14.08-1s-4.73,7.79-13.15,7.81a6.39,6.39,0,0,1-1.5,0s3.15,8.35,3.76,14.58-1.31,10.71-1.9,22.61c-0.51,10.17-3.28,5-6.58,12.45a15.58,15.58,0,0,0-1.16,5.34c-1.23.3-4.43-6.1-2.13-17.22C157.29,98.4,149.89,71,132,76.38c-10.94,3.26-13.69,9.9-21.87,4-7-5.09-16.9-8-24.26-4S74.38,89.48,75.65,103.91C77.3,122.34,74.23,122.21,74.23,122.21Z"/><path class="cls-11" d="M154.63,228.14l-0.92.39H78.53l-0.93-.39c0-1.11,0-2.21.05-3.26,0.1-2.42.31-4.71,0.6-6.81a45.28,45.28,0,0,1,.92-5c0.13-.71.32-1.39,0.49-2.08,0.26-.92.53-1.81,0.82-2.68,0.24-.71.49-1.39,0.76-2a35.2,35.2,0,0,1,2.54-5.18,28.1,28.1,0,0,1,5.5-6.8,25.22,25.22,0,0,1,4.64-3.39l0.1-.06,0.06,0a18.82,18.82,0,0,0,3.07,3.47c1.78,1.76,4.35,4.08,7.62,6.8,0.22,0.16.44,0.37,0.68,0.55,6.79,5.52,14.55,5.52,21.31,0,0.24-.18.48-0.39,0.69-0.55,3.29-2.72,5.86-5,7.65-6.8a19.79,19.79,0,0,0,3.07-3.47l0,0,0.13,0.06a24.79,24.79,0,0,1,4.64,3.39,28.84,28.84,0,0,1,5.51,6.8,33.15,33.15,0,0,1,2.51,5.18c0.26,0.65.52,1.34,0.76,2,0.31,0.87.59,1.76,0.85,2.68,0.18,0.68.34,1.37,0.5,2.08,0.36,1.57.65,3.23,0.88,5,0.29,2.1.5,4.39,0.61,6.81C154.6,225.93,154.63,227,154.63,228.14Z"/></svg>