<svg id="Layer_1" data-name="Layer 1" xmlns="http://www.w3.org/2000/svg" viewBox="0 0 227.05 228.46"><defs><style>.cls-1{fill:#f4eec3;}.cls-2{fill:#1d1d1b;}.cls-3{fill:#e6c5a1;}.cls-4{fill:#f5d7b3;}.cls-5,.cls-7{fill:#c89f81;}.cls-5{opacity:0.7;}.cls-6{fill:#d8ad8b;}.cls-8{fill:#e4bea0;}.cls-9{fill:#ca666c;}.cls-10{fill:#d96f71;}.cls-11{fill:#9163a6;}</style></defs><title>1-81</title><rect class="cls-1" width="227.05" height="228.46"/><path class="cls-2" d="M164.36,166.71c0,14.86-20.1,26.91-44.91,26.91s-44.91-12.05-44.91-26.91,20.11-26.9,44.91-26.9S164.36,151.85,164.36,166.71Z"/><path class="cls-3" d="M118.87,142.52v85.93H72.25L71.1,228a82.2,82.2,0,0,1,2.13-19.62c6.56-27.53,26.42-29.91,26.42-29.91h0.22a5.87,5.87,0,0,0,.62-0.14c2.36-.65,4-4.13,5-9.11,0.19-.85.36-1.73,0.49-2.68,0.26-1.57.49-3.24,0.65-5,0.1-1.05.2-2.1,0.3-3.18,0.42-5.27.56-11,.56-16.45C107.53,141.9,113.8,142.52,118.87,142.52Z"/><path class="cls-4" d="M166.8,228s-0.42.17-1.11,0.49H118.87V142.52H119c5.06,0,11.38-.63,11.38-0.63,0,5.41.12,11.08,0.56,16.32,0.1,1,.19,2.1.29,3.11,0.19,1.81.39,3.51,0.64,5.12v0c0.11,0.72.24,1.38,0.37,2,1,4.81,2.41,8.35,4.51,9.53a3.61,3.61,0,0,0,.49.2,3,3,0,0,0,1,.2,7.81,7.81,0,0,1,.91.16c3,0.65,13,3.66,20,15.78C163.57,201.72,166.8,212.44,166.8,228Z"/><path class="cls-5" d="M131.84,166.44v0a15.05,15.05,0,0,1-12.92,7h-0.06c-7.43,0-11.75-5.43-12.86-7,0.26-1.58.49-3.25,0.66-5,0.09-1.05.19-2.1,0.29-3.19a51.6,51.6,0,0,0,11.77,1.54h0.15a49,49,0,0,0,12-1.67c0.1,1,.19,2.09.3,3.11C131.38,163.14,131.58,164.84,131.84,166.44Z"/><path class="cls-6" d="M118.82,50.17C70.17,50.08,69.89,89.26,72,114.82c-3.34-6-13.21-3.78-12.41,5.83C60.42,129.83,74.37,134,74.17,133c4,20.83,26.91,32.39,44.65,34h0.37V50.17h-0.37Z"/><path class="cls-7" d="M62.09,116.59a4.83,4.83,0,0,1,7.14-1.3,3.81,3.81,0,0,1,1.15,4.27c-0.34,1.23-1.7,1.33-1.38,3.21,0.36,2.1,1.39,2.24,2,2.73a4.35,4.35,0,0,1,1.67,1.73,4.53,4.53,0,0,1,.22,2.65c-0.37,1.52-2.7.31-4.26-.36a29.65,29.65,0,0,1-5.11-4C61.42,123.34,60.47,119.05,62.09,116.59Z"/><path class="cls-8" d="M119.06,50.17c48.66-.09,48.94,39.09,46.78,64.65,3.33-6,13.2-3.78,12.39,5.83C177.46,129.83,163.52,134,163.7,133c-4,20.83-26.91,32.39-44.64,34h-0.37V50.17h0.37Z"/><path class="cls-7" d="M176.14,116.59a4.82,4.82,0,0,0-7.13-1.3,3.79,3.79,0,0,0-1.16,4.27c0.34,1.23,1.71,1.33,1.38,3.21-0.37,2.1-1.39,2.24-2,2.73a4.36,4.36,0,0,0-1.66,1.73,4.43,4.43,0,0,0-.22,2.65c0.38,1.52,2.71.31,4.27-.36a29.92,29.92,0,0,0,5.1-4C176.81,123.34,177.77,119.05,176.14,116.59Z"/><path class="cls-3" d="M118.57,61.26c-16.25,0-28.14,4.49-35.35,13.35-10.05,12.37-9.67,31.29-6,44.86,1.14,4.15,1.72,15.32,2.5,19.44,3.5,18.35,24.79,28.13,38.81,28.13l0.37,0V61.27h-0.37Z"/><path class="cls-4" d="M153.83,74.64c-7.15-8.81-18.9-13.29-34.89-13.37V167c16-.17,35.14-10.87,38.42-28.11,0.79-4.12,1.36-15.29,2.5-19.44C163.56,105.93,163.93,87.05,153.83,74.64Z"/><path class="cls-9" d="M127.13,150.45s-3.68,3.94-8.2,3.94-8-3.85-8-3.85a51.68,51.68,0,0,1,8-.6A67.05,67.05,0,0,1,127.13,150.45Z"/><path class="cls-10" d="M121.24,148.64a2.13,2.13,0,0,0-2.31,1.79,2.12,2.12,0,0,0-2.32-1.79c-1.29,0-5.88,1.81-5.88,1.81s4.48,0.48,5.76.48,2.41,0.5,2.44-.45c0,1,.95.59,2.22,0.59s6-.62,6-0.62S122.54,148.64,121.24,148.64Z"/><path class="cls-11" d="M170.61,206.32s-13.54-26.77-32.4-27.88c-0.49,0,14,21.27-5.3,26.2A48.82,48.82,0,0,1,119,206.11h-0.1A48.73,48.73,0,0,1,105,204.64c-19.34-4.94-4.81-26.24-5.3-26.2-18.87,1.11-32.4,27.88-32.4,27.88l6,2,8.43,2.85a56.26,56.26,0,0,0-3.11,17.26h80.72a56.11,56.11,0,0,0-3.11-17.26l8.44-2.85Z"/><path class="cls-2" d="M161.66,140.91c-0.19,3.53-.39,3.92,1.33,6.69s3.7,3.83,1.79,7-5,3.54-4.83,6.32,3.61,4.1,3,7.83c-0.52,3.37-6,6.91-7,7.52,0.82-.59,4.33-3.32,3.83-6.75-0.59-3.91-1-4.1-5.19-6.31s-4.8-3.21-3.64-6.36,4.94-3.45,2.07-6.8-4.5-5.64-3.75-7.69-0.49-3.56,2.87-7.51c2.1-2.39,1.79-7.82,1.79-10.24s3.4-14.12-2.09-19.25c-1-.91-2.68-3-4.72-5.45-1.65-2-3.56-4.23-5.46-6.21a29.46,29.46,0,0,1-5-7.71c-1.23-2.59-2-4.75-2.24-5.24,0.06,0.57.42,3.07,0.68,5,0.07,0.73.16,1.37,0.18,1.86a11.5,11.5,0,0,0,4.33,8.24c-1.39-.8-7.06-4.21-9.35-7.24a16.14,16.14,0,0,1-2.1-3.61,13.09,13.09,0,0,1-.28-9.9,50.08,50.08,0,0,1-6.81,8.47c-0.25.24-.52,0.46-0.8,0.7a93.94,93.94,0,0,1-10.73,7.23,28.06,28.06,0,0,0,5.87-7.61,11.52,11.52,0,0,0,.73-1.46c0.72-1.67,3.61-10.41,3.61-10.41a132.32,132.32,0,0,1-7.33,11.69,43.27,43.27,0,0,1-7.83,8.43c-1.11.87-2.59,2.06-4.25,3.44-6,4.94-14.29,12.39-15,16.46-0.93,5.2,1.71,16.57,3.42,21.2s1.9,6.16,0,8-6.64,5.21-5.87,6.88,3.61,4.45,3,6.69-6.81,7.58-7.6,10.6c-1.38,5.32,6.85,9.85,7.83,10.36-1-.32-12.13-4.53-10.86-10.17,0.83-3.67.19-4.25-1.9-7.06s-5.13-7.45-2.29-10.22,6.84-6,5.9-9.13-11.14-25-11.14-32.79A67.45,67.45,0,0,1,67.3,94.91a89.48,89.48,0,0,1,3.55-13.09c3.22-8.88,8.19-17.73,15.72-22.5,16.15-10.22,27.54-11.81,33.25-10.52s11.5-1,13-.39S148.95,55,154.46,61.15c4.24,4.75,14.78,16.33,19.36,29.76A37.47,37.47,0,0,1,176,103.16c0,0.45,0,.91,0,1.37C175.31,122.18,161.85,137.46,161.66,140.91Z"/></svg>