<svg id="Layer_1" data-name="Layer 1" xmlns="http://www.w3.org/2000/svg" viewBox="0 0 226.73 229.44"><defs><style>.cls-1{fill:#b5ca8a;}.cls-2{fill:#e6c5a1;}.cls-3{fill:#f5d7b3;}.cls-4,.cls-6{fill:#c89f81;}.cls-4{opacity:0.7;}.cls-5{fill:#d8ad8b;}.cls-7{fill:#e4bea0;}.cls-8{fill:#ca666c;}.cls-9{fill:#d96f71;}.cls-10{fill:#3c2a1f;}.cls-11{fill:#644e53;}.cls-12{fill:#9d5256;}</style></defs><title>1-81</title><rect class="cls-1" width="226.73" height="229.44"/><path class="cls-2" d="M114.61,147.34v81.3H70.5c-0.71-.31-1.08-0.46-1.08-0.46,0-43.61,27-46.87,27-46.87h0.22a3.45,3.45,0,0,0,.58-0.12c2.23-.62,3.75-3.9,4.77-8.61,0.19-.8.34-1.64,0.46-2.54,0.25-1.49.46-3.06,0.62-4.71,0.09-1,.18-2,0.28-3,0.4-5,.52-10.42.52-15.56C103.87,146.75,109.81,147.34,114.61,147.34Z"/><path class="cls-3" d="M160,228.17s-0.4.15-1.06,0.46H114.61v-81.3h0.09c4.8,0,10.77-.59,10.77-0.59,0,5.11.12,10.48,0.52,15.43,0.09,1,.19,2,0.28,3,0.18,1.7.38,3.32,0.62,4.83v0c0.09,0.68.21,1.31,0.34,1.92,0.93,4.56,2.3,7.91,4.27,9a3.89,3.89,0,0,0,1.45.37S160,184.56,160,228.17Z"/><path class="cls-4" d="M126.88,170v0a14.25,14.25,0,0,1-12.22,6.67h0c-7,0-11.13-5.15-12.18-6.64,0.24-1.49.46-3.06,0.61-4.71,0.09-1,.19-2,0.28-3a48.93,48.93,0,0,0,11.13,1.46h0.12A46,46,0,0,0,126,162.19c0.09,1,.19,2,0.28,2.94C126.45,166.84,126.64,168.45,126.88,170Z"/><path class="cls-5" d="M114.57,60c-46-.09-46.3,37-44.25,61.16-3.17-5.68-12.49-3.57-11.73,5.52,0.73,8.69,13.93,12.63,13.75,11.68C76.1,158,97.8,169,114.57,170.51h0.35V60h-0.35Z"/><path class="cls-6" d="M60.9,122.81a4.55,4.55,0,0,1,6.74-1.23,3.55,3.55,0,0,1,1.09,4c-0.32,1.17-1.62,1.27-1.29,3a3.2,3.2,0,0,0,1.86,2.58,3.55,3.55,0,0,1,1.78,4.15c-0.35,1.44-2.55.29-4-.35a28,28,0,0,1-4.84-3.74C60.27,129.19,59.36,125.14,60.9,122.81Z"/><path class="cls-7" d="M114.8,60c46-.09,46.3,37,44.25,61.16,3.16-5.68,12.5-3.57,11.73,5.52-0.74,8.69-13.93,12.63-13.73,11.68C153.27,158,131.58,169,114.8,170.51h-0.35V60h0.35Z"/><path class="cls-6" d="M168.79,122.81a4.56,4.56,0,0,0-6.75-1.23,3.57,3.57,0,0,0-1.09,4c0.33,1.17,1.62,1.27,1.3,3a3.18,3.18,0,0,1-1.87,2.58,4.16,4.16,0,0,0-1.57,1.64,4.2,4.2,0,0,0-.21,2.51c0.36,1.44,2.56.29,4-.35a27.82,27.82,0,0,0,4.83-3.74C169.42,129.19,170.33,125.14,168.79,122.81Z"/><path class="cls-2" d="M114.33,70.47C99,70.47,87.7,74.71,80.89,83.1c-9.5,11.71-9.14,29.6-5.64,42.44,1.07,3.93,1.63,14.51,2.36,18.39,3.33,17.36,23.46,26.61,36.72,26.61h0.35v-100h-0.35Z"/><path class="cls-3" d="M147.69,83.12c-6.76-8.32-17.88-12.57-33-12.64v100c15.14-.15,33.23-10.3,36.35-26.6,0.74-3.88,1.29-14.46,2.36-18.39C156.89,112.73,157.24,94.86,147.69,83.12Z"/><path class="cls-8" d="M122.42,154.84s-3.47,3.72-7.75,3.72-7.56-3.64-7.56-3.64a49.9,49.9,0,0,1,7.56-.56A63.46,63.46,0,0,1,122.42,154.84Z"/><path class="cls-9" d="M116.86,153.13a2,2,0,0,0-2.2,1.68,2,2,0,0,0-2.19-1.68c-1.22,0-5.56,1.72-5.56,1.72s4.23,0.45,5.46.45,2.28,0.48,2.3-.43c0,0.91.9,0.55,2.1,0.55s5.66-.58,5.66-0.58S118.07,153.13,116.86,153.13Z"/><path class="cls-10" d="M69.48,157.68s0,0.1.06,0.14C69.75,158.08,69.7,158,69.48,157.68Z"/><path class="cls-11" d="M160,228.17a7,7,0,0,0-1.06.46H70.6a9.8,9.8,0,0,0-1.08-.46c0-10.14,1.46-18.07,3.74-24.3,9.93-6.81,30.41-6.72,41.45,4.26,0,0,17.07-14,34.42-6.63a25.44,25.44,0,0,1,8.23,5.52A75.44,75.44,0,0,1,160,228.17Z"/><path class="cls-12" d="M99.83,173c0,1.1,5.92.15,3.85,16.12S83.85,202.44,78.75,211a27.41,27.41,0,0,0-3.3,17.66H67.91l1.6-5.45a20.81,20.81,0,0,1,1.26-13.72c3.3-6.88-.08-11,0.33-13.85s4.91-9.41,9-10.94,3.89-.5,9.12-1.75,11.13-4.19,11.13-7.49S99.83,173,99.83,173Z"/><path class="cls-12" d="M129.39,172.53c0,1.09-5.92.15-3.85,16.11s19.84,13.35,24.93,21.89,3.08,18.1,3.08,18.1h7.4L160,222.86a22.64,22.64,0,0,0-1.6-13.84c-3.31-6.89.07-10.95-.33-13.85s-4.91-9.41-9-10.93-4-.16-9.28-1.41-11-4.55-11-7.85S129.39,172.53,129.39,172.53Z"/><path class="cls-11" d="M174.12,42.15c-0.75-2.09,3,14.61-7,17.34a31.45,31.45,0,0,0-4.87,1.74c-0.43-3.89-.75-5.37.49-9.5a16.15,16.15,0,0,0-1.21-13.25c-2.26-4.2-7.65-5.6-7.65-5.6s5.78,3.22,3.64,9.65c-1.44,4.33-4.14,6.22-5.64,9.88A24.56,24.56,0,0,0,150.47,57a7,7,0,0,0-.94-4.19c-1.74-2.66-7.23-7-6-12.4,3.41-15-3.65-19.16-4.66-21s2.77,4.83.28,10.4c-1.45,3.22-3.58,4.37-5.85,5.52-1.39-2.06-2.39-4.44-1.79-7.05,3.4-15-3.65-19.15-4.66-21s2.77,4.83.25,10.41-7,4.9-10.83,8.91A21.45,21.45,0,0,0,114,29.45a21.73,21.73,0,0,0-2.26-2.84c-3.8-4-8.32-3.34-10.83-8.91s1.28-12.24.28-10.4-8.07,6-4.66,21c0.59,2.62-.41,5-1.8,7.05-2.28-1.15-4.39-2.3-5.84-5.52-2.51-5.57,1.26-12.25.25-10.41s-8.07,6-4.66,21c1.22,5.36-4.26,9.75-6,12.4A7.11,7.11,0,0,0,77.53,57a24.69,24.69,0,0,0-1.38-4.58c-1.49-3.65-4.21-5.54-5.64-9.87-2.13-6.44,3.64-9.66,3.64-9.66s-5.39,1.4-7.65,5.61a16.21,16.21,0,0,0-1.21,13.24c1.24,4.12.93,5.61,0.49,9.49a31.41,31.41,0,0,0-4.87-1.75c-10.05-2.73-6.26-19.43-7-17.33s-5,12.33-2,20.75c1.56,4.44,2.75,6,9.25,12.23s3.76,3,7.26,9.31,0.1,10.15,0,17.84c0,0,0,.06,0,0.09v0.05s0,0.09,0,.14h0c0.33,8,20.67,14.52,45.74,14.52,25.26,0,45.75-6.59,45.75-14.72a5.2,5.2,0,0,0-.39-1.88c-0.51-6.54-3.09-10.32.09-16.05,3.5-6.29.75-3.11,7.25-9.31s7.7-7.78,9.26-12.22C179.08,54.48,174.87,44.25,174.12,42.15Z"/><path class="cls-11" d="M109.73,113.08c0,5.73-7.16,12.68-13.62,12.68S83.51,120.7,83.51,115s0-10.58,6.17-12.23C100.41,99.89,109.73,107.34,109.73,113.08Z"/><path class="cls-11" d="M119.65,113.39c0,5.73,7.16,12.69,13.61,12.69s12.61-5.06,12.61-10.79,0-10.59-6.17-12.24C129,100.2,119.65,107.65,119.65,113.39Z"/><path class="cls-1" d="M105.14,114.1c0,3.82-4.77,8.45-9.07,8.45s-8.4-3.37-8.4-7.19,0-7.06,4.11-8.14C98.93,105.33,105.14,110.29,105.14,114.1Z"/><path class="cls-1" d="M123.93,114.66c0,3.82,4.77,8.45,9.07,8.45s8.4-3.37,8.4-7.19,0-7.06-4.11-8.14C130.14,105.89,123.93,110.84,123.93,114.66Z"/></svg>