<svg id="Layer_1" data-name="Layer 1" xmlns="http://www.w3.org/2000/svg" viewBox="0 0 227.06 228.47"><defs><style>.cls-1{fill:#62a6b0;}.cls-2{fill:#e6c5a1;}.cls-3{fill:#f5d7b3;}.cls-4,.cls-6{fill:#c89f81;}.cls-4{opacity:0.7;}.cls-5{fill:#d8ad8b;}.cls-7{fill:#e4bea0;}.cls-8{fill:#8f1913;}.cls-9{fill:#fcfcfc;}.cls-10{fill:#4a2b16;}</style></defs><title>1-81</title><rect class="cls-1" width="227.06" height="228.47"/><path class="cls-2" d="M113.28,144.36v84.06H67.68l-1.12-.48c0-45.09,27.91-48.46,27.91-48.46,2.79,0,4.58-3.59,5.76-9,0.19-.83.34-1.7,0.48-2.64,0.26-1.54.48-3.17,0.63-4.87,0.1-1,.2-2.05.29-3.11,0.42-5.16.54-10.77,0.54-16.09C102.17,143.76,108.32,144.36,113.28,144.36Z"/><path class="cls-3" d="M160.16,227.95s-0.41.15-1.08,0.48H113.28V144.36h0.09c5,0,11.13-.6,11.13-0.6,0,5.29.13,10.82,0.54,16,0.09,1,.19,2,0.28,3,0.19,1.76.39,3.43,0.64,5v0c0.1,0.7.23,1.35,0.36,2,1.17,5.8,3,9.71,5.91,9.71C132.24,179.48,160.16,182.86,160.16,227.95Z"/><path class="cls-4" d="M126,167.76v0a14.73,14.73,0,0,1-12.63,6.88h-0.06c-7.26,0-11.48-5.32-12.57-6.86,0.26-1.54.48-3.17,0.63-4.87,0.1-1,.2-2.05.29-3.11a49.76,49.76,0,0,0,11.52,1.5h0.13A46.8,46.8,0,0,0,125,159.72c0.09,1,.19,2,0.28,3C125.52,164.52,125.72,166.19,126,167.76Z"/><path class="cls-5" d="M113.41,48C65.11,48,64.84,88.48,67,115c-3.31-6.29-13.11-4.34-12.31,5.55,0.77,9.55,14.62,14.48,14.42,13.37,4,21.82,26.7,34.43,44.32,34.43l0.37,0V48h-0.37Z"/><path class="cls-6" d="M57.76,116.37a4.56,4.56,0,0,1,7-1.33,4,4,0,0,1,1.12,4.4c-0.33,1.26-1.66,1.37-1.34,3.31a3.39,3.39,0,0,0,1.93,2.8,4.42,4.42,0,0,1,1.62,1.79,4.86,4.86,0,0,1,.22,2.73c-0.37,1.56-2.65.32-4.17-.38a28.56,28.56,0,0,1-5-4.06C57.1,123.32,56.16,118.91,57.76,116.37Z"/><path class="cls-7" d="M113.65,48c48.3,0,48.58,40.52,46.43,67,3.31-6.29,13.13-4.34,12.32,5.55C171.62,130.1,157.77,135,158,133.92c-3.95,21.82-26.68,34.43-44.3,34.43l-0.37,0V48h0.37Z"/><path class="cls-6" d="M169.3,116.37a4.57,4.57,0,0,0-7-1.33,4,4,0,0,0-1.12,4.4c0.34,1.26,1.67,1.37,1.35,3.31a3.4,3.4,0,0,1-1.94,2.8,4.49,4.49,0,0,0-1.62,1.79,4.74,4.74,0,0,0-.21,2.73c0.36,1.56,2.63.32,4.16-.38a28.93,28.93,0,0,0,5-4.06C170,123.32,170.9,118.91,169.3,116.37Z"/><path class="cls-2" d="M113,59.38c-15.9,0-27.53,4.62-34.58,13.76-9.82,12.74-9.45,32.22-5.83,46.2,1.11,4.28,1.68,15.8,2.45,20,3.42,18.9,24.24,29,38,29l0.37,0V59.39H113Z"/><path class="cls-3" d="M147.48,73.16c-7-9.07-18.48-13.69-34.12-13.77V168.33c15.64-.16,34.37-11.2,37.58-29,0.77-4.23,1.33-15.75,2.45-20C157,105.4,157.35,86,147.48,73.16Z"/><path class="cls-8" d="M133.41,179.72a3.22,3.22,0,0,1-1.75-1,34.16,34.16,0,0,0-3.27-4.44,2.36,2.36,0,0,1-.31-0.33l-0.48,2.75L113.36,184l-14-6.82-0.7-3.26a1.63,1.63,0,0,1-.19.18c-1.89,2.18-5.14,5.76-5.11,5.63-5.27,1.23-26.74,8.65-26.74,48.23l1.11,0.48h91.38l1.1-.48C160.16,188.37,138.69,180.94,133.41,179.72Z"/><path class="cls-9" d="M130.84,175.92c-0.69-1.78-2.37-3.44-3-4.86-1-2.35-1.94-4.43-1.94-4.43-0.22,2.25-3.68,12.22-3.68,12.22s-10.85,5.22-9.14,5.58,9.74,10.54,12,13.25,1.93,5.18,2.53,1.54S132.68,180.69,130.84,175.92Z"/><path class="cls-9" d="M104.51,178.85s-3.45-10-3.68-12.22c0,0-.93,2.08-1.94,4.43-0.61,1.42-2.28,3.08-3,4.86-1.84,4.77,2.56,19.66,3.16,23.3s0.22,1.14,2.52-1.54,9.8-12.87,11.51-13.25S104.51,178.85,104.51,178.85Z"/><path class="cls-10" d="M73.35,163.63l0,0.13h0l0,0a30.29,30.29,0,0,0,6.45,10.33,37.57,37.57,0,0,0,9.7,7.41,49.25,49.25,0,0,1-4.49-4A43.56,43.56,0,0,1,81.23,173a32.7,32.7,0,0,1-3.65-5.89c0.8,0.37,1.6.72,2.41,1,2.23,0.83,4.59,1.5,6.62,2.21l2.75,1-0.61-2.77a57.07,57.07,0,0,0-2.57-7.94c-0.13-.35-0.29-0.7-0.43-1,0.78,0.57,1.56,1.13,2.37,1.67a51.55,51.55,0,0,0,9,4.86A39.85,39.85,0,0,0,106.9,169a30.61,30.61,0,0,0,6.46.15,30.7,30.7,0,0,0,6.47-.15,40,40,0,0,0,9.83-2.86,51.87,51.87,0,0,0,9-4.86q1.2-.82,2.36-1.67c-0.13.35-.29,0.7-0.43,1A57.06,57.06,0,0,0,138,168.6l-0.62,2.77,2.75-1c2-.71,4.39-1.38,6.63-2.21,0.8-.3,1.6-0.65,2.41-1a33.49,33.49,0,0,1-3.66,5.89,43.56,43.56,0,0,1-3.85,4.49,49.77,49.77,0,0,1-4.48,4,37.86,37.86,0,0,0,9.7-7.41,30.34,30.34,0,0,0,6.44-10.33h0l0.05-.13,2.36-6.92-5,6.08a3.08,3.08,0,0,1-.72.68,10.8,10.8,0,0,1-1.29.74,29.29,29.29,0,0,1-3.05,1.22c-1.22.43-2.45,0.78-3.71,1.14,1.36-4,3.16-8.12,4.9-12.1l3.56-8.13-6.32,6.33c-1.06,1.07-2.3,2.16-3.53,3.19s-2.48,2.05-3.79,3a70.41,70.41,0,0,1-8.2,5.18,43.53,43.53,0,0,1-9.08,3.52,29.77,29.77,0,0,1-6.16,1,29.78,29.78,0,0,1-6.15-1A43.31,43.31,0,0,1,98.13,164a69.64,69.64,0,0,1-8.2-5.18c-1.3-.95-2.57-2-3.79-3s-2.46-2.12-3.54-3.19l-6.32-6.33,3.56,8.13c1.74,4,3.55,8.05,4.9,12.1-1.26-.36-2.49-0.71-3.72-1.14a28.76,28.76,0,0,1-3-1.22,10.53,10.53,0,0,1-1.29-.74,2.74,2.74,0,0,1-.71-0.68l-5-6.08Z"/><path class="cls-10" d="M76.29,146.34s32,39.43,74.14,0l-12,14.19S108,183.62,80.13,153.74Z"/><path class="cls-10" d="M70,116.78c-1,0,.07-5.16-3.16-8.71s-8.13-15.53-8.13-27.48S62.89,58,73.85,46.69s27.07-16.8,27.07-16.8l-7.41,6.78s4-5.51,18.35-9.91c11.31-3.47,18.65.4,18.65,0.4s-7.46-.25-9.73,3a12.23,12.23,0,0,1-2.66,2.08s3.47-7.8,19.59-1.33,15.82,18,27,21.59c11.47,3.64,14.8-1,14.8-1s-5,8.2-13.82,8.21a8,8,0,0,1-1.58,0s3.31,8.78,3.95,15.32c0.66,6.69-1.38,11.27-2,23.77-0.54,10.69-3.45,5.21-6.92,13.08a16.57,16.57,0,0,0-1.22,5.62c-1.29.31-4.66-6.42-2.23-18.11,1.57-7.58-6.22-36.33-25-30.73-11.49,3.43-14.4,10.42-23,4.21-7.41-5.35-17.76-8.42-25.5-4.19S70.14,82.36,71.48,97.54C73.2,116.92,70,116.78,70,116.78Z"/></svg>