<svg id="Layer_1" data-name="Layer 1" xmlns="http://www.w3.org/2000/svg" viewBox="0 0 227.05 228.47"><defs><style>.cls-1{fill:#eb827c;}.cls-2{fill:#644e53;}.cls-3{fill:#fcfcfc;}.cls-4{fill:#e6c5a1;}.cls-5{fill:#f5d7b3;}.cls-6,.cls-8{fill:#c89f81;}.cls-6{opacity:0.7;}.cls-7{fill:#d8ad8b;}.cls-9{fill:#e4bea0;}.cls-10{fill:#b5ca8a;}</style></defs><title>1-81</title><rect class="cls-1" width="227.05" height="228.47"/><ellipse class="cls-2" cx="116.54" cy="183.49" rx="33.19" ry="13.18"/><path class="cls-3" d="M164.68,132.62s-2.8-3.55-1.14-26.19a96.63,96.63,0,0,0-1.78-24.66c0.17,0.65-16.16,33-16.16,33-0.56,9.05-1,17.89-1.13,24l-2.73-4.69s-2.33,7.72-2.66,10.79c0,0.16,0,.35,0,0.52l-8.82-8.79s0,5,.46,9.8l-5.33-5.32s0.05,13,1.83,17c2,4.56.19,17.21,0.19,17.21a36.88,36.88,0,0,0,5.39-9.38c-0.21,2.8-.51,4.9-0.51,4.9a39.56,39.56,0,0,0,7-14.21c0.11,1.94.23,3.9,0.25,5.83a38.16,38.16,0,0,1-2.16,12.09,53.54,53.54,0,0,0,7.33-17.33c0.47,7.93,1.61,13.69,4,16.78-0.31-.55-1.53-3.15-1.23-9.88,0.13-3,.4-6.31.77-9.59a26.16,26.16,0,0,0,7.36,13.29,45,45,0,0,1-2.84-21.17c0.28-2.37.49-4.44,0.67-6.31a64.53,64.53,0,0,0,1.25,10.76c2,9.68,6.12,15.18,6.12,15.18s-4-8.78-.34-32.56a43.27,43.27,0,0,0,.19-7.31C162.88,131.83,164.68,132.62,164.68,132.62Z"/><path class="cls-3" d="M68.06,131.3s2.8-3.54,1.14-26.19A96.56,96.56,0,0,1,71,80.43c-0.16.66,16.16,33,16.16,33,0.55,9,1,17.88,1.12,24L91,132.81s2.32,7.72,2.65,10.78c0,0.18,0,.37,0,0.54l8.82-8.8s0,5-.47,9.81l5.33-5.32s0,13-1.82,17c-2,4.57-.19,17.2-0.19,17.2a37.19,37.19,0,0,1-5.4-9.37c0.22,2.8.52,4.9,0.52,4.9a39.66,39.66,0,0,1-7-14.21c-0.11,1.94-.22,3.9-0.25,5.83a38.27,38.27,0,0,0,2.17,12.08,53.15,53.15,0,0,1-7.32-17.32c-0.48,7.93-1.62,13.69-4,16.78,0.32-.55,1.52-3.15,1.23-9.89-0.13-3-.41-6.31-0.77-9.59a26.19,26.19,0,0,1-7.36,13.29A44.91,44.91,0,0,0,80,145.36c-0.28-2.36-.49-4.43-0.66-6.3a63.55,63.55,0,0,1-1.26,10.75C76.07,159.5,72,165,72,165s4-8.79.34-32.56a43.09,43.09,0,0,1-.19-7.31C69.86,130.5,68.06,131.3,68.06,131.3Z"/><path class="cls-4" d="M116.13,143v84.83H69.21l-1.15-.49c0-46.39,28.73-48.19,28.73-48.19,2.16,0,3.77-2.15,4.93-5.64a37.85,37.85,0,0,0,1-3.66c0.19-.85.37-1.74,0.49-2.7,0.27-1.58.49-3.27,0.66-5,0.1-1.06.19-2.11,0.3-3.2,0.43-5.3.55-11.07,0.55-16.55C104.71,142.36,111,143,116.13,143Z"/><path class="cls-5" d="M164.37,227.32s-0.43,1.83-1.12.49l-47.11-1.65V143h0.11c5.09,0,11.44-.63,11.44-0.63,0,5.45.14,11.16,0.56,16.43,0.11,1.05.21,2.11,0.3,3.13,0.19,1.81.4,3.52,0.66,5.14v0c0.09,0.73.23,1.39,0.36,2a32.09,32.09,0,0,0,1.15,4.38c1.19,3.49,2.8,5.61,4.93,5.61C135.65,179.13,164.37,180.93,164.37,227.32Z"/><path class="cls-6" d="M129.19,167.07v0a15.16,15.16,0,0,1-13,7.09h-0.06c-7.46,0-11.81-5.47-12.93-7.06,0.26-1.57.49-3.26,0.66-5,0.1-1.06.19-2.11,0.28-3.19A51.14,51.14,0,0,0,116,160.47h0.13a48.08,48.08,0,0,0,12.11-1.68c0.1,1.06.2,2.11,0.3,3.13C128.73,163.74,128.93,165.45,129.19,167.07Z"/><path class="cls-7" d="M116.27,43.81c-49.7,0-50,41.68-47.77,69-3.41-6.47-13.49-4.47-12.67,5.72,0.8,9.81,15,14.89,14.84,13.74,4.08,22.47,27.46,35.43,45.6,35.43l0.37,0V43.82h-0.37Z"/><path class="cls-8" d="M59,114.19a4.7,4.7,0,0,1,7.18-1.37,4.12,4.12,0,0,1,1.17,4.53c-0.35,1.3-1.72,1.41-1.38,3.4a3.49,3.49,0,0,0,2,2.88,4.57,4.57,0,0,1,1.67,1.85,4.88,4.88,0,0,1,.22,2.81c-0.37,1.61-2.72.33-4.28-.39a30.12,30.12,0,0,1-5.15-4.19C58.33,121.35,57.36,116.81,59,114.19Z"/><path class="cls-9" d="M116.5,43.81c49.7,0,50,41.68,47.78,69,3.41-6.47,13.49-4.47,12.66,5.72-0.79,9.81-15,14.89-14.84,13.74-4.08,22.47-27.46,35.43-45.6,35.43l-0.37,0V43.82h0.37Z"/><path class="cls-8" d="M173.77,114.19a4.7,4.7,0,0,0-7.18-1.37,4.14,4.14,0,0,0-1.17,4.53c0.35,1.3,1.72,1.41,1.39,3.4a3.49,3.49,0,0,1-2,2.88,4.57,4.57,0,0,0-1.67,1.85,4.91,4.91,0,0,0-.22,2.81c0.37,1.61,2.72.33,4.28-.39a29.9,29.9,0,0,0,5.14-4.19C174.45,121.35,175.41,116.81,173.77,114.19Z"/><path class="cls-4" d="M115.83,55.56c-16.36,0-28.32,4.76-35.58,14.15-10.11,13.12-9.72,33.17-6,47.55,1.14,4.39,1.72,16.24,2.51,20.59,3.52,19.46,24.94,29.82,39,29.82l0.38,0V55.58h-0.38Z"/><path class="cls-5" d="M151.32,69.74c-7.19-9.33-19-14.09-35.11-14.16V167.66c16.1-.17,35.35-11.53,38.66-29.8,0.79-4.35,1.37-16.2,2.52-20.59C161.11,102.92,161.48,82.9,151.32,69.74Z"/><path class="cls-10" d="M130.19,184.72l-0.49,43.1H102.15l-0.33-43.75a54.15,54.15,0,0,0,15.23,2.57A47.69,47.69,0,0,0,130.19,184.72Z"/><path class="cls-2" d="M164.66,228.15a91.44,91.44,0,0,0-.79-12.5c-2.92-22-13.48-31.16-20.76-34.88a23.45,23.45,0,0,0-7.17-2.47c-2.14,0-3.79-1.71-5-5.21-0.23-.43-0.43,0-0.62-0.88l-0.16,13.35-3.66,11.55H105.58l-3.76-12.21-0.1-12.23c-1.15,3.5-2.77,5.64-4.93,5.64A22.27,22.27,0,0,0,90,180.6c-7.51,3.7-18.86,13.23-21.35,37.23a89.17,89.17,0,0,0-.57,10.32l1.15,0.49h7v0.07h79.31v-0.07h8C164.24,228.32,164.66,228.15,164.66,228.15Z"/><path class="cls-3" d="M170.51,87.36a66.24,66.24,0,0,1-.61,8.11,13.7,13.7,0,0,1-.75,3.56c-0.31.66-2.5,6.68-2.66,9a11.67,11.67,0,0,0-3,4.38c-1.61,4.24-2.25,3.53-2.25,3.53s0.51-3.36,1.09-7.46c0.34-3.46.82-8.6,1.2-13,0-.61.1-1.23,0.13-1.81-0.72-3.56-7.42-20.65-39.25-19-5.12.24-10.31-1.68-14.35-3.73s-7.06-4.32-7.33-4.32c-1.41,0-14.15-2.36-21.63,3.22a12.07,12.07,0,0,0-1.34,1.1C70.91,78.58,69.68,92,69.68,94.64a8,8,0,0,0,0,.82c0.25,5.51,2.53,20.48,2.53,20.48s-0.62.71-2.25-3.53a11.78,11.78,0,0,0-3.56-4.9c-1.78-3.77-2.77-4.93-3.65-8.49A23.49,23.49,0,0,0,61,95.46c-1.71-3.36-3.65-9.56-1.6-24.57,0.11-.69.2-1.38,0.31-2.09,1.56-10.27,9.36-33.35,29.92-37.45s25.35-8.94,42.16-2.06,27.43,11.68,32.59,23c2.32,5.16,3.82,12.15,4.71,18.59A135.34,135.34,0,0,1,170.51,87.36Z"/><polygon class="cls-10" points="117.31 212.15 115.36 212.15 107.15 201.79 125.51 201.79 117.31 212.15"/></svg>