<svg id="Layer_1" data-name="Layer 1" xmlns="http://www.w3.org/2000/svg" viewBox="0 0 226.8 229.51"><defs><style>.cls-1{fill:#f4eec3;}.cls-2{fill:#644e53;}.cls-3{fill:#e6c5a1;}.cls-4{fill:#f5d7b3;}.cls-5,.cls-8{fill:#c89f81;}.cls-5{opacity:0.7;}.cls-6{fill:#d8ad8b;}.cls-7{fill:#9d5256;}.cls-9{fill:#e4bea0;}.cls-10{fill:#473639;}</style></defs><title>1-81</title><rect class="cls-1" width="226.8" height="229.51"/><path class="cls-2" d="M92.05,119.61a9.17,9.17,0,0,0-6.35-3.54c-1.27-4.36-2.62-7.92-3.94-9.72C76.42,99,63,104.77,63,104.77c0,8.61,3,12.92,0,19.82s-0.65,3.41-6.2,10.19-6.58,8.51-7.92,13.37c-2.53,9.22,1.06,20.41,1.71,22.71s-2.59-16,6-19A24,24,0,0,0,60.77,150c0.37,4.25.64,5.87-.42,10.39a22.13,22.13,0,0,0,1,14.48A11.74,11.74,0,0,0,67.92,181s-4.93-3.51-3.1-10.57c1.22-4.73,3.54-6.8,4.82-10.81a34.42,34.42,0,0,0,1.17-5,9.4,9.4,0,0,0,.8,4.59c1.49,2.91,6.18,7.7,5.14,13.57-2.91,16.45,3.13,21,4,23s-2.36-5.28-.22-11.38a10.51,10.51,0,0,1,5-6A12,12,0,0,1,87,186c-2.91,16.44,3.13,21,4,23s-2.37-5.28-.22-11.38,6-5.38,9.25-9.76a26,26,0,0,0,3.51-23.49C103.12,163.06,97.4,126.93,92.05,119.61Z"/><path class="cls-2" d="M184,147.88c-1.33-4.86-2.35-6.61-7.9-13.38s-3.21-3.3-6.2-10.19,0-11.21,0-19.83c0,0-13.42-5.73-18.76,1.58-1.32,1.81-2.65,5.37-3.93,9.73a9.15,9.15,0,0,0-6.35,3.54c-5.34,7.31-11.07,43.44-11.51,44.76a26,26,0,0,0,3.51,23.49c3.26,4.38,7.11,3.66,9.26,9.76s-1.09,13.39-.23,11.38,6.89-6.53,4-23a11.91,11.91,0,0,1,1.54-7.72,10.53,10.53,0,0,1,5,6c2.15,6.1-1.08,13.39-.23,11.38s6.9-6.51,4-23c-1-5.88,3.64-10.67,5.14-13.57a9.61,9.61,0,0,0,.8-4.59,33,33,0,0,0,1.17,5c1.27,4,3.59,6.06,4.82,10.8,1.83,7.06-3.1,10.58-3.1,10.58a11.76,11.76,0,0,0,6.53-6.14,22.12,22.12,0,0,0,1-14.48c-1-4.51-.78-6.14-0.42-10.39a23.45,23.45,0,0,0,4.16,1.91c8.58,3,5.35,21.26,6,19S186.58,157.09,184,147.88Z"/><path class="cls-3" d="M115.62,147.61v82.15H71.05L70,229.3c0-44.06,27.27-47.36,27.27-47.36,2.73,0,4.47-3.51,5.64-8.83,0.18-.82.34-1.66,0.46-2.56,0.25-1.51.48-3.11,0.63-4.76,0.09-1,.18-2,0.28-3,0.35-4.1.47-8.53,0.5-12.81,0-1,0-1.94,0-2.91C104.77,147,110.77,147.61,115.62,147.61Z"/><path class="cls-4" d="M161.45,229.3s-0.41.16-1.06,0.47H115.62V147.61h0.09c4.85,0,10.88-.59,10.88-0.59,0,1.13,0,2.25,0,3.39,0,4.1.19,8.29,0.5,12.21,0.09,1,.18,2,0.28,3,0.19,1.72.38,3.36,0.63,4.88v0c0.09,0.68.22,1.31,0.34,1.94,1.15,5.67,3,9.49,5.78,9.49C134.15,181.94,161.45,185.23,161.45,229.3Z"/><path class="cls-5" d="M128,170.48v0a14.39,14.39,0,0,1-12.34,6.73h0c-7.12,0-11.24-5.2-12.3-6.7,0.25-1.5.46-3.1,0.62-4.76,0.09-1,.19-2,0.28-3a49,49,0,0,0,11.25,1.47h0.12a46.2,46.2,0,0,0,11.51-1.6c0.09,1,.18,2,0.28,3C127.59,167.32,127.78,169,128,170.48Z"/><path class="cls-6" d="M115.76,53.4C68.54,53.4,68.27,93,70.37,118.92c-3.24-6.14-12.81-4.25-12,5.43,0.75,9.32,14.29,14.15,14.09,13.06,3.88,21.33,26.09,33.66,43.32,33.66l0.36,0V53.4h-0.36Z"/><path class="cls-7" d="M161.45,229.3s-0.41.16-1.06,0.47H71.05L70,229.3c0-43,26-47.16,27.24-47.36h0c2.07,0,3.57-2,4.66-5.26a4.83,4.83,0,0,0,1.94,1.7c1.59,0.87,4.62,1.72,11.87,1.72s12.07-1.57,13.38-2.78a1.86,1.86,0,0,0,.4-0.63c1.06,3.13,2.5,5.11,4.41,5.26h0.24S161.45,185.23,161.45,229.3Z"/><path class="cls-8" d="M61.35,120.26a4.46,4.46,0,0,1,6.82-1.3,3.91,3.91,0,0,1,1.11,4.3c-0.33,1.24-1.64,1.34-1.31,3.23a3.34,3.34,0,0,0,1.88,2.74A4.41,4.41,0,0,1,71.44,131a4.67,4.67,0,0,1,.21,2.67c-0.36,1.52-2.58.31-4.07-.37a27.85,27.85,0,0,1-4.88-4C60.71,127.06,59.8,122.74,61.35,120.26Z"/><path class="cls-9" d="M116,53.4c47.21,0,47.48,39.61,45.38,65.52,3.24-6.14,12.82-4.25,12,5.43-0.76,9.32-14.29,14.15-14.11,13.06-3.86,21.33-26.08,33.66-43.3,33.66l-0.37,0V53.4H116Z"/><path class="cls-8" d="M170.38,120.26a4.45,4.45,0,0,0-6.81-1.3,3.92,3.92,0,0,0-1.11,4.3c0.33,1.24,1.63,1.34,1.32,3.23a3.33,3.33,0,0,1-1.89,2.74,4.42,4.42,0,0,0-1.59,1.75,4.78,4.78,0,0,0-.21,2.67c0.36,1.52,2.58.31,4.07-.37a27.59,27.59,0,0,0,4.89-4C171,127.06,171.93,122.74,170.38,120.26Z"/><path class="cls-3" d="M115.35,64.56c-15.54,0-26.91,4.52-33.79,13.45-9.61,12.46-9.25,31.49-5.7,45.16,1.08,4.18,1.64,15.43,2.4,19.57,3.34,18.48,23.69,28.32,37.1,28.32l0.35,0V64.56h-0.35Z"/><path class="cls-4" d="M149.05,78C142.23,69.16,131,64.64,115.7,64.56V171c15.3-.15,33.59-10.94,36.73-28.3,0.74-4.13,1.3-15.39,2.38-19.57C158.35,109.53,158.71,90.53,149.05,78Z"/><path class="cls-2" d="M99.88,53.06c-5.16-6.32-8.6-15.94,0-22.93s16.42-7.25,20-7.25,13.87,1,16.75,7.25,10.9,10.27,3.73,16-4.63,9.77-21.4,9.77S99.88,53.06,99.88,53.06Z"/><path class="cls-7" d="M66.85,86c0.6-7.18-7.12-4,2.08-14.65s15.44-16.67,22.57-19,15.75-8,28.8-6.89,20.19-3.45,27,6.32,9.21,10.64,11.88,21.56,11.57,19.33,1.19,18S66.85,86,66.85,86Z"/><path class="cls-10" d="M134.46,186.57c-6,4.26-9.94,5.24-18.9,5.24s-12-1.26-16.6-3.54c-3.22-1.6-5.51-2.85-3.16-4.91a14.16,14.16,0,0,0,1.4-1.42h0a21.43,21.43,0,0,0,1.82-2.78c1.22-1.79-2.19-2.81-.09-4.19a5.55,5.55,0,0,1,3.71-1.1c-0.77,2.82.41,4.1,1.17,4.52,1.59,0.87,4.62,1.72,11.87,1.72s10.76-1.57,12.32-2.44c1.33-.74,1-2.2,1-2.83a2.82,2.82,0,0,1-.2-0.58s4,0.24,3.66,2.21a7.84,7.84,0,0,0,1.48,5.48c0.18,0.25.34,0.51,0.52,0.73C135.88,184.51,138,184.07,134.46,186.57Z"/><path class="cls-2" d="M161.32,83.42c-3.22-1.17-11.23-3.7-18.21-6.17a16.23,16.23,0,0,0-2.83-1.1c-10.54-3-11.05-7.85-26.3-6.7S78.83,80.39,70.92,83.26s-10,10.35-9.38,18.68a53.45,53.45,0,0,0,2.64,13.8c10-6.61,20.22-14.66,31.65-15.81s16.7-2,27.84,0,17.4,0.46,27.81,5.37c5.71,3.08,11.19,7,16.58,10.61a53.48,53.48,0,0,0,2.63-13.8C171.28,93.76,169.23,86.29,161.32,83.42Z"/><path class="cls-2" d="M143.14,154.47c-0.71-2.52-3.48-1.75-8.59-3.52s-13.71-2.73-18.82-2.74h-0.06c-5.11,0-13.73,1-18.81,2.74s-7.88,1-8.59,3.52c-0.37,1.32.41,7.25,1.17,8.45,2,3.21,8.49,7.12,13.32,9.31,3.63,1.66,6.51,1.72,12.94,1.56,6.43,0.16,9.31.1,12.94-1.56,4.83-2.19,11.32-6.1,13.33-9.31C142.73,161.72,143.51,155.79,143.14,154.47Zm-9.62,1.22c-0.64.86-4.64,3.72-9.4,5.89-0.94.42-1.57,0.65-4.65,0.65-1,0-2.17,0-3.48-.06h-0.59c-1.3,0-2.45.06-3.48,0.06-3.07,0-3.71-.23-4.65-0.65-4.72-2.15-8.7-5-9.51-6.08a12.47,12.47,0,0,1,2.74-1.26c3.58-1.25,10.88-2.13,15.19-2.13H116c4.35,0,11.4.92,14.9,2.13a13.71,13.71,0,0,1,2.71,1.23A1.62,1.62,0,0,1,133.52,155.69Z"/><polygon class="cls-2" points="91.25 205.71 87.87 199.85 84.49 205.71 81.12 211.56 84.49 217.42 87.87 223.29 91.25 217.42 94.62 211.56 91.25 205.71"/><polygon class="cls-2" points="104.75 205.71 101.37 199.85 98 205.71 94.62 211.56 98 217.42 101.37 223.29 104.75 217.42 108.13 211.56 104.75 205.71"/><polygon class="cls-2" points="118.26 205.71 114.89 199.85 111.5 205.71 108.13 211.56 111.5 217.42 114.89 223.29 118.26 217.42 121.64 211.56 118.26 205.71"/><polygon class="cls-2" points="131.77 205.71 128.39 199.85 125.01 205.71 121.64 211.56 125.01 217.42 128.39 223.29 131.77 217.42 135.13 211.56 131.77 205.71"/><polygon class="cls-2" points="145.26 205.71 141.89 199.85 138.52 205.71 135.13 211.56 138.52 217.42 141.89 223.29 145.26 217.42 148.65 211.56 145.26 205.71"/></svg>